<svg preserveAspectRatio="none" overflow="visible" style="display: block;" width="384.989" height="129.861" viewBox="0 0 384.989 129.861" fill="none" xmlns="http://www.w3.org/2000/svg">
<path id="Vector 234254432" d="M382.375 63.2248C380.288 64.8309 377.613 66.5853 375.487 67.8849C374.794 68.3102 375.04 67.9381 374.549 68.2304C373.601 68.7931 372.924 69.3482 371.987 69.8785C371.681 70.0505 371.895 69.5851 371.576 69.7708C369.73 70.8565 368.381 71.8217 366.577 72.9191C358.026 78.0977 349.703 82.9692 340.857 87.7555C337.94 89.3344 334.308 91.0242 331.318 92.713C330.967 92.9115 331.289 93.0085 331.231 93.0613C330.301 93.8839 330.435 93.2766 329.705 93.5856C326.903 94.7631 323.797 96.311 321.179 97.7003C320.075 98.2864 321.407 98.1543 320.159 98.473C320.073 98.4956 320.248 98.1312 319.928 98.2581C319.203 98.5464 317.883 99.2345 317.323 99.4806C316.244 99.9539 316.068 100.04 315.053 100.517C313.666 101.167 312.018 101.797 310.558 102.527C310.248 102.683 310.773 102.725 310.287 102.995C309.801 103.266 308.449 103.854 307.969 104.002C307.489 104.151 307.6 103.88 307.501 103.874C306.67 103.82 305.356 104.991 305.162 105.091C301.642 106.885 298.315 107.954 294.891 109.343C292.271 110.406 289.453 111.616 286.944 112.546C283.939 113.659 281.295 114.468 278.375 115.507C278.065 115.616 278.528 115.775 278.149 115.91C274.113 117.341 270.055 118.62 265.913 119.651C265.497 119.754 265.949 119.342 265.529 119.43C262.947 119.983 258.866 120.58 257.656 122.091C255.933 122.508 253.829 122.999 252.241 123.15C251.215 123.248 252.109 122.733 250.922 123.148C250.653 123.241 251.07 123.4 250.663 123.521C248.948 124.028 247.026 124.384 245.324 124.888C244.978 124.991 245.122 125.191 245.031 125.252C244.262 125.758 242.753 125.515 242.441 125.538C240.065 125.722 238.392 126.161 236.218 126.543C235.714 126.631 236.363 126.824 235.879 126.92C233.37 127.408 230.749 127.8 228.252 128.019C227.696 128.066 228.167 127.738 227.9 127.748C226.724 127.791 226.532 128.31 225.402 128.35C225.164 128.359 225.268 128.122 225.222 128.104C224.504 127.81 223.988 128.419 223.816 128.452C221.648 128.877 220.188 128.465 218.083 128.745C217.831 128.779 218.428 129.005 217.717 129.083C212.977 129.598 207.929 129.802 203.209 129.651C202.475 129.628 202.996 129.409 202.949 129.384C202.194 128.989 201.714 129.536 201.475 129.558C199.588 129.718 197.837 129.241 196.543 129.861C188.566 129.467 180.555 129.101 172.842 127.181C172.744 127.157 172.967 126.924 172.771 126.877C170.42 126.308 170.806 126.795 169.13 126.989C168.956 127.008 168.67 126.876 168.387 126.709C167.987 126.47 167.595 126.158 167.538 126.119C167.19 125.874 167.671 125.57 167.549 125.511C166.546 125.034 166.434 126.363 164.989 126.026C164.944 126.013 165.189 125.822 165.074 125.77C164.716 125.608 164.321 125.611 163.973 125.439C163.176 125.042 163.041 124.35 161.663 124.367C161.493 124.37 161.527 125.159 160.274 124.775C159.775 124.626 157.54 123.982 156.928 123.736C156.317 123.496 156.818 123.399 156.777 123.375C155.192 122.543 155.869 122.616 155.177 121.897C154.488 121.175 154.367 122.314 153.984 122.318C153.589 122.319 152.481 121.66 152.213 121.468C151.948 121.278 152.367 121.263 152.121 121.122C150.495 120.185 151.17 121.373 150.533 121.333C149.027 121.233 148.258 120.052 147.049 119.492C146.722 119.339 146.926 119.623 146.621 119.522C145.411 119.115 144.827 118.598 143.411 118.264C143.181 118.21 141.914 118.216 141.367 117.578C141.29 117.487 141.651 117.418 141.175 117.16C140.466 116.776 139.145 116.136 138.336 115.841C137.74 115.624 138.257 116.237 137.576 115.807C137.274 115.615 137.954 115.71 137.381 115.365C136.81 115.022 135.272 114.303 134.685 114.025C134.099 113.749 134.305 114.136 134.251 114.129C133.922 114.081 132.746 113.642 132.647 113.592C127.664 111.151 123.38 108.309 118.668 105.713C118.297 105.508 118.402 105.886 118.344 105.857C117.034 105.217 118.389 105.175 117.641 104.449C117.485 105 117.018 104.608 116.112 104.132C115.677 103.905 115.795 104.226 115.745 104.222C114.954 104.125 114.74 103.501 114.674 103.359C114.429 102.839 113.787 102.883 113.619 102.53C113.45 102.179 114.255 102.311 113.424 101.801C113.086 101.825 113.43 102.648 112.755 102.327C110.193 101.122 106.024 97.9262 104.184 96.6278C102.341 95.337 101.718 94.9503 100.683 94.1506C98.8147 92.6978 99.3074 93.5066 98.0022 92.8067C96.6949 92.1003 97.8275 91.7411 97.7718 91.453C97.7199 91.1673 97.414 91.2069 97.2682 90.9661C97.1232 90.726 97.6571 90.9361 97.1885 90.5513C96.7196 90.1673 95.1645 89.4946 94.8658 89.54C94.2338 89.6382 94.5614 90.4611 93.3591 89.3822C93.2903 89.3198 93.6789 89.2952 93.4079 89.0667C91.2509 87.258 88.9253 85.5064 86.7996 83.6698C86.5074 83.4168 86.9494 83.4064 86.7815 83.2567C85.0358 81.695 85.4151 82.5729 84.0839 82.1987C84.7341 81.8294 84.4308 81.0646 83.0424 79.9717C82.2086 79.3137 82.1665 79.6632 81.4953 79.4041C81.2933 79.3262 80.8343 78.6987 80.6377 78.7231C79.9962 78.804 80.2296 79.6548 78.9245 78.3484C78.8679 78.2905 79.2261 78.2526 79.0188 78.0669C77.6817 76.8654 77.2103 77.1077 75.6709 75.9308C74.4674 75.011 72.5694 73.0617 71.271 71.91C71.7955 71.3387 70.4319 70.4265 69.5825 70.4075C68.7404 69.6674 67.8048 68.9107 67.0318 68.1508C66.7627 67.887 67.0964 67.8774 67.0762 67.8281C66.7727 67.0665 66.0629 67.1411 65.8652 66.9976C63.737 65.4222 62.4061 63.7321 60.2784 62.36C60.2023 62.3109 59.7352 62.6169 59.4927 61.8745C59.4783 61.8254 60.2628 62.196 59.3902 61.3932C58.5167 60.5899 57.0575 58.8905 55.6907 57.9846C55.3579 57.7635 54.3383 57.4264 53.9629 56.6191C53.9145 56.5119 54.106 56.4778 54.0491 56.3091C53.8626 55.7667 53.2918 55.9816 53.1706 55.2415C53.0498 54.5015 52.385 53.4178 50.9702 52.5354C50.9258 52.5066 50.3478 52.5578 49.9774 52.2021C49.391 51.6386 48.5926 50.7652 47.954 50.1656C47.6495 49.88 47.6597 50.2582 47.6036 50.212C45.4501 48.3809 44.2511 46.9038 42.1448 44.7191C41.7612 44.3205 40.3743 43.4807 39.8265 42.5388C39.2273 41.5071 40.9823 41.3912 38.8968 39.7747C38.0369 39.1011 35.8683 39.3013 35.1189 37.3268C32.3842 34.8897 30.1861 32.0178 27.3868 29.5566C27.2571 29.4417 26.5438 29.3727 26.27 29.0786C25.8641 28.6413 25.7968 28.2565 25.5161 27.9426C24.3478 26.627 23.1337 25.6192 21.9482 24.3192C21.5085 23.837 21.8275 23.8477 21.3089 23.2774C20.7932 22.7097 20.2287 22.5408 19.6425 21.7023C19.2137 21.0823 19.063 20.0305 18.4062 19.216C17.9413 19.5931 17.4511 19.0459 16.4881 18.2309C16.3032 18.0747 16.3241 18.405 16.2287 18.3384C15.8365 18.0697 15.6812 17.645 15.3009 17.4021C15.2028 17.3363 15.0486 17.47 14.96 17.4242C14.1981 17.0364 13.6839 15.7879 13.6008 15.577C13.2726 14.763 12.8245 14.6628 12.5042 14.1292C12.1873 13.599 12.904 14.1713 12.4853 13.5982C11.5541 12.3405 10.1918 10.8633 9.23192 9.76344C8.79714 9.26799 8.89093 9.78526 8.82394 9.71852C7.8701 8.74378 7.2626 7.60985 6.42093 7.47051C6.91319 5.89981 5.74763 6.90799 4.793 5.37444C4.72045 5.25557 5.10602 4.6871 5.52873 5.02755C5.95035 5.36681 6.36346 6.15996 7.02033 6.68199C7.15362 6.78099 8.27314 7.11687 8.39646 7.20004C9.33824 7.82741 8.71504 8.61836 8.71138 8.69687C8.71594 9.14657 9.07469 9.52199 9.45612 9.80229C9.80605 10.0471 10.1964 10.2171 10.3211 10.3226C11.4468 11.2706 12.3113 12.4445 13.243 13.2523C13.8562 13.7863 14.3933 13.4118 14.8143 13.9065C16.2307 15.5663 16.1294 16.7977 18.0534 17.7298C18.4751 17.94 18.692 17.1298 19.3635 18.6787C19.4033 18.7738 19.8479 20.005 20.562 20.2976C20.6477 20.3299 20.7973 20.187 20.8838 20.2544C21.4617 20.7097 21.6758 21.1803 22.2883 21.7184C22.9012 22.2568 23.666 22.898 24.2738 23.6427C24.6426 24.094 24.8703 24.8938 24.9759 25.1418C25.29 25.8671 26.17 26.1437 26.2567 26.7106C26.3461 27.2825 25.3391 26.9572 26.0491 28.0077C26.4692 27.6693 26.9411 27.3645 27.3828 27.0442C29.3166 29.0871 30.9893 31.0584 32.9682 33.0364C33.213 33.2802 33.1709 32.8256 33.439 33.082C34.5987 34.1935 35.3323 35.2256 36.5266 36.3056C37.4433 37.1321 38.6282 37.8798 39.6204 38.7524C39.7405 39.7367 41.2322 40.9124 42.1934 41.928C42.5296 42.2831 42.3918 42.378 42.6042 42.6596C43.4112 43.7206 43.3474 42.9004 43.6665 43.0911C45.0402 43.9135 44.2824 44.8923 45.5977 46.113C45.6668 46.178 46.9644 46.512 47.1099 46.594C48.0365 47.1095 47.075 46.8762 47.5076 47.3551C48.2993 48.2303 48.7887 48.9098 49.9385 49.7282C50.2837 49.975 51.2443 50.3162 51.5977 51.0785C51.6439 51.1783 51.4549 51.2983 51.5062 51.3635C52.4501 52.5329 52.9449 52.0617 53.7279 52.4729C54.511 52.8842 55.1704 54.1292 55.2795 54.4128C55.5656 55.1508 54.7775 54.1555 54.7266 54.155C54.118 54.1513 54.8791 54.7561 55.4055 55.2846C55.0356 55.8515 55.827 56.5199 55.9519 55.8289C55.9676 55.7555 55.4945 55.4075 55.4055 55.2846C56.3393 55.2513 57.2083 55.9311 57.7223 57.2221C57.9626 57.8259 57.3262 57.7039 58.729 58.8027C59.3669 59.3017 59.4416 58.7509 60.0568 59.1338C61.4648 60.0113 62.7675 61.7389 64.0629 62.7842C64.5352 63.1654 64.2567 62.5868 64.5852 62.8407C65.4578 63.5137 66.0683 64.2951 66.9727 64.9492C67.0549 65.0082 67.0409 64.648 67.3047 64.8714C69.324 66.5739 70.9107 68.146 73.0068 69.9072C74.0163 70.7565 75.9305 72.1526 76.9602 73.0312C78.7496 74.5611 80.7867 76.689 82.4296 77.868C83.4979 78.6358 83.4351 78.2496 83.9885 78.4563C85.056 78.8535 86.1943 80.5249 86.3422 80.7599C86.3463 80.7675 85.4121 80.1229 85.8075 80.6001C85.9133 81.0383 86.3314 80.7531 86.3422 80.7599C86.4378 80.9144 88.1993 82.3413 88.5894 82.5725C88.8008 82.6986 88.843 82.4171 88.9503 82.4865C91.4912 84.136 93.9583 85.887 96.3745 87.7753C96.4153 87.8109 96.1859 87.9898 96.284 88.0709C97.6529 89.2106 98.7791 89.591 100.091 90.2656C101.403 90.9397 102.315 91.6519 102.756 92.5367C103.699 93.1123 104.894 94.1786 105.581 94.7927C106.267 95.4075 106.675 95.0245 106.747 95.0601C109.02 96.1553 110.045 97.1941 112.217 98.6326C113.246 99.3164 115.362 100.54 116.527 101.176C117.447 101.68 117.926 102.116 118.806 102.546C118.924 102.604 118.934 102.328 118.973 102.34C120.054 102.645 119.304 102.887 119.443 103.093C119.948 103.836 120.28 104.27 121.573 104.807C121.871 104.932 123.101 104.655 123.629 104.896C124.315 105.211 123.918 105.338 124.642 105.659C124.703 105.686 124.783 105.515 125.203 105.758C127.181 106.9 129.311 108.168 131.402 109.222C131.687 109.367 131.459 108.914 131.873 109.118C133.82 110.077 135.98 111.152 137.826 112.173C138.281 112.426 137.897 112.477 137.973 112.581C138.442 113.217 139.562 113.13 139.712 113.187C143.392 114.569 145.862 116.148 149.681 117.357C149.89 117.424 151.638 117.452 152.157 118.169C152.192 118.217 152.705 118.947 153.425 118.826C153.47 118.818 153.132 118.421 153.865 118.704C154.587 118.983 155.873 119.229 156.821 119.836C157.121 120.029 157.751 120.767 158.853 120.673C158.929 120.668 160.696 120.227 161.058 120.988C161.118 121.113 160.836 121.739 162.112 121.73C162.358 121.727 161.983 121.47 162.608 121.541C163.564 121.647 164.738 122.133 165.931 122.106C166.141 122.101 167.073 121.849 167.662 122.333C167.755 122.409 167.508 122.586 167.855 122.687C168.277 122.81 168.708 122.914 169.142 123.008C170.435 123.287 171.767 123.485 173.043 123.826C173.651 123.987 173.273 124.292 173.902 124.497C174.531 124.704 175.822 125.004 176.524 124.94C177.226 124.876 176.573 124.194 177.59 124.295C182.013 124.724 186.358 125.491 190.802 125.792C191.46 125.836 190.926 125.6 191.896 125.646C195.477 125.836 201.654 125.689 204.78 126.027C207.289 126.309 204.149 126.67 206.067 126.756C206.996 126.796 207.966 126.079 208.187 126.048C210.347 125.736 211.871 125.942 213.819 125.708C214.221 125.66 213.805 125.416 214.147 125.378C215.314 125.242 216.553 125.26 217.669 125.133C218.169 125.075 218.057 124.876 218.519 124.847C219.624 124.775 220.607 124.759 221.704 124.832C221.804 124.839 221.172 125.172 221.989 125.089C223.312 124.953 224.978 124.94 226.469 124.535C226.911 124.414 226.863 123.94 227.875 124.129C228.087 124.168 227.911 124.774 228.966 124.119C229.145 124.011 230.928 123.064 231.919 123.337C232.181 123.41 232.88 123.77 233.408 123.606C233.479 123.582 233.144 123.379 233.586 123.279C235.143 122.93 236.797 122.66 238.391 122.273C238.817 122.169 238.127 122.032 238.763 121.885C240.51 121.48 242.71 121.096 244.441 120.803C245.081 120.695 244.69 121.005 244.742 121.019C245.566 121.236 245.89 120.625 246.129 120.54C247.613 120.018 248.827 119.986 250.211 119.585C250.593 119.474 250.261 119.297 250.332 119.257C251.076 118.851 250.59 119.433 251.106 119.357C252.55 119.147 254.121 118.726 255.539 118.319C256.06 118.169 255.397 118.044 255.865 117.912C258.635 117.126 261.487 116.348 264.238 115.694C264.754 115.572 264.499 115.881 264.619 115.898C265.451 116.022 266.376 115.231 266.606 115.111C267.655 114.566 268.144 114.62 269.111 114.275C273.85 112.588 279.725 110.687 284.221 109.09C290.016 107.033 294.567 105.43 299.999 103.055C300.343 102.905 299.878 102.78 300.173 102.647C303.957 100.947 307.803 99.3515 311.523 97.52C311.828 97.3703 311.265 97.3223 311.75 97.0734C312.728 96.5689 314.073 95.9491 315.139 95.5376C315.663 95.3347 315.09 95.8774 315.615 95.6685C316.836 95.1826 318.101 94.59 319.271 93.9633C319.769 93.6961 318.878 93.8138 319.534 93.4867C324.097 91.2015 328.467 88.8894 333.131 86.8047C333.447 86.6636 333.993 87.0352 334.582 86.5882C334.556 86.4178 334.462 86.2512 334.401 86.0865C340.878 82.4669 347.302 79.0076 353.609 75.2156C353.883 75.0509 353.25 75.0719 353.778 74.7521C356.772 72.9361 359.658 71.0319 362.732 69.4279C363.028 69.2737 363.191 69.8194 364.051 69.1666C364.208 69.0482 365.507 68.1191 365.773 67.8035C365.808 67.7588 365.433 67.6997 365.846 67.4207C368.243 65.809 370.819 64.1583 373.4 62.575C373.795 62.3349 373.544 62.8364 373.826 62.6679C375.834 61.4629 377.987 59.6956 379.847 58.6527C381.31 57.7952 381.065 58.5524 381.938 58.4846C381.963 58.5067 382.269 58.3052 382.518 58.1754C382.771 58.0423 382.973 57.9781 383.069 58.0741C383.561 58.55 383.686 59.3806 384.249 59.8584C384.279 59.8842 384.354 59.8518 384.432 59.8083C384.475 59.7835 384.498 59.7719 384.56 59.7304C384.663 59.6587 384.742 59.6048 384.795 59.5718C384.904 59.5046 384.913 59.5219 384.938 59.5522C384.951 59.5924 385.045 59.5958 384.938 59.7946C384.929 59.8097 384.877 59.8647 384.731 59.9961C384.687 60.0502 384.622 60.1261 384.543 60.2169C384.387 60.3957 384.156 60.6456 384.078 60.782C383.969 60.9721 384.427 60.9735 384.157 61.3131C384.006 61.5636 383.62 61.5635 383.242 62.0028C383.05 62.225 383.044 62.3667 382.971 62.5419C382.935 62.6293 382.876 62.7295 382.77 62.8513C382.693 62.9517 382.574 63.0703 382.375 63.2248ZM108.689 97.5359C109.254 98.2148 109.878 97.4796 108.99 97.1755C108.946 97.1616 108.659 97.5014 108.689 97.5359ZM30.4954 31.5766C30.9627 32.6596 31.9424 32.7723 31.6259 31.9838C31.3115 31.1975 30.3534 31.2478 30.4954 31.5766ZM22.3161 23.4857C22.9733 24.6679 24.102 23.8882 22.9389 23.0542C22.8719 23.0056 22.2779 23.4169 22.3161 23.4857ZM378.987 60.7813C379.009 60.7816 379.586 60.3851 379.587 60.3684C379.712 59.9061 378.565 60.6953 378.987 60.7813ZM14.3181 15.3292C14.4537 15.7519 15.4191 16.497 15.2389 15.9606C15.0913 15.5266 14.1459 14.8 14.3181 15.3292ZM147.186 119.044C147.194 119.062 147.651 119.255 147.671 119.176C147.733 118.922 147.065 118.739 147.186 119.044ZM1.56503 0.796384C3.38034 3.0368 3.57635 4.98069 1.68275 2.55887C1.49526 2.31919 1.76966 2.50592 2.05816 2.69327C2.37095 2.90921 2.55377 2.95622 2.3997 2.69667C1.96712 2.04434 1.51838 1.71254 1.13471 1.41952C1.08555 1.38144 1.04501 1.35305 0.990955 1.30714C0.923395 1.2451 0.858689 1.18506 0.797121 1.12662C0.674025 1.00979 0.563403 0.899269 0.468453 0.792972C0.373513 0.686688 0.294234 0.584615 0.23496 0.486062C0.21532 0.455594 0.222682 0.456489 0.179906 0.395361C0.13655 0.333519 0.100596 0.279156 0.072433 0.232709C0.0161675 0.13989 -0.00870147 0.0790015 0.00271219 0.0557583C0.0186677 0.0480091 0.0396517 -0.0123405 0.144772 0.00227225C0.19953 0.0122204 0.282837 0.0500454 0.414121 0.142586C0.552585 0.243736 0.583182 0.211314 0.679194 0.258819C1.01118 0.386197 1.49781 0.710846 1.57047 0.800454C1.56867 0.799112 1.56683 0.797726 1.56503 0.796384ZM108.471 98.764C108.478 98.7839 109.042 99.1631 109.063 99.1612C109.536 99.1058 108.401 98.3428 108.471 98.764ZM174.689 127.223C174.722 127.257 176.285 127.524 176.34 127.505C177.227 127.139 174.079 126.602 174.689 127.223ZM71.2633 71.8767C70.4953 71.6322 69.7898 71.0853 69.5849 70.41C70.1359 70.9023 70.704 71.384 71.2633 71.8767ZM306.608 59.5294C307.039 59.4207 307.616 59.4762 308.058 59.5729C308.196 59.6027 308.137 59.7759 308.233 59.8042C308.421 59.8592 308.587 59.7662 308.774 59.834C308.835 59.8572 308.776 60.1296 308.84 60.1478C309.193 60.246 309.517 60.1587 309.871 60.1951C311.613 60.3753 313.316 60.3767 315.071 60.3966C315.65 60.403 316.364 60.6052 316.953 60.4641C317.022 60.4474 316.967 60.2146 316.979 60.1945C317.169 59.8856 317.128 60.3644 317.267 60.4196C317.819 60.6373 318.418 60.624 318.929 60.5031C319.147 60.4509 318.899 59.9966 319.136 60.2459C319.152 60.2627 319.111 60.5157 319.173 60.5388C319.313 60.5908 319.57 60.531 319.678 60.5445C319.884 60.572 319.918 60.5675 320.111 60.5591C320.376 60.5497 320.697 60.6555 320.978 60.5823C321.037 60.566 320.942 60.3146 321.036 60.2654C321.13 60.2163 321.387 60.223 321.477 60.2784C321.566 60.3337 321.542 60.5371 321.56 60.5823C321.708 60.9643 321.972 60.4078 322.009 60.3923C322.689 60.1246 323.302 60.397 323.953 60.3581C324.447 60.3279 324.969 60.1956 325.44 60.182C326.001 60.1668 326.484 60.2778 327.027 60.2222C327.084 60.2166 326.999 59.9195 327.069 59.9121C327.813 59.8335 328.555 59.8231 329.308 59.983C329.384 59.9992 329.304 60.2692 329.38 60.3012C329.848 60.4918 330.599 60.9715 330.802 59.805C331.113 59.8319 331.49 59.8565 331.779 60.0723C331.966 60.2112 331.81 60.5092 332.021 60.3736C332.069 60.3434 331.99 60.095 332.063 60.0687C332.368 59.9582 332.713 60.0203 333.013 59.872C333.074 59.8413 333.044 59.6163 333.059 59.5746C333.189 59.2364 333.469 59.7666 333.526 59.803C333.955 60.0741 334.249 59.9403 334.633 59.9251C334.722 59.9217 334.599 59.6244 334.684 59.6102C335.126 59.5407 335.588 59.5399 336.031 59.6491C336.13 59.6742 336.056 59.9379 336.104 59.9631C336.315 60.071 336.332 59.5801 336.533 59.6741C336.576 59.6933 336.566 59.916 336.575 59.9399C336.715 60.3145 336.785 59.7679 336.815 59.7542C337.188 59.5688 337.466 60.1188 337.832 60.0173C337.875 60.0046 337.759 59.7304 337.883 59.7118C338.707 59.586 339.589 59.6117 340.423 59.7877C340.552 59.8147 340.473 60.0304 340.483 60.0558C340.638 60.4534 340.69 59.9055 340.731 59.8827C341.051 59.7163 341.384 60.1537 341.569 59.494C342.972 59.6372 344.335 59.1932 345.747 59.692C345.765 59.6977 345.749 59.9669 345.785 59.977C346.215 60.1026 346.11 59.6918 346.359 59.1673C346.421 59.0355 346.671 59.6367 346.692 59.6805C346.771 59.8422 346.722 60.2442 346.747 60.2749C346.953 60.5158 346.845 59.2022 347.102 59.1867C347.11 59.1885 347.091 59.4326 347.114 59.4554C347.185 59.527 347.246 59.4269 347.317 59.5064C347.478 59.6905 347.569 60.3266 347.777 59.9412C347.803 59.8912 347.715 59.1476 347.947 59.1694C348.039 59.1788 348.444 59.1423 348.56 59.184C348.676 59.2257 348.613 59.4707 348.621 59.4806C348.946 59.7807 348.837 59.9193 349.018 60.3811C349.199 60.8411 349.091 59.725 349.146 59.5966C349.201 59.4684 349.441 59.7177 349.501 59.8056C349.561 59.8937 349.502 60.0505 349.554 60.0992C349.898 60.4176 349.664 59.5357 349.76 59.3519C349.988 58.9168 350.233 59.7349 350.468 59.8027C350.532 59.821 350.47 59.635 350.525 59.6141C350.741 59.5338 350.889 59.7848 351.125 59.5329C351.164 59.4918 351.338 58.9812 351.49 59.3396C351.512 59.3913 351.471 59.6011 351.568 59.6419C351.712 59.7032 351.967 59.7336 352.114 59.6557C352.222 59.5981 352.075 59.2649 352.221 59.3625C352.286 59.4061 352.182 59.6121 352.304 59.6774C352.424 59.7428 352.721 59.7166 352.834 59.7031C352.947 59.6895 352.87 59.4347 352.878 59.4168C352.927 59.3139 353.137 59.1766 353.156 59.1758C354.121 59.0878 355.038 59.4712 355.97 59.272C356.044 59.2568 355.978 58.9872 355.989 58.9821C356.236 58.8531 356.079 59.5892 356.269 59.8213C356.212 59.2699 356.322 59.364 356.496 59.2929C356.58 59.2582 356.521 59.0469 356.528 59.0245C356.636 58.6919 356.749 59.1067 356.777 59.1913C356.88 59.5024 356.95 59.1236 357.019 59.3315C357.089 59.5379 356.975 59.8564 357.146 59.8424C357.182 59.6417 357.025 59.1319 357.15 59.0405C357.621 58.6949 358.558 59.0473 358.954 59.0665C359.349 59.0856 359.473 59.0417 359.706 59.0999C360.127 59.205 359.953 58.8302 360.2 58.6395C360.447 58.4488 360.377 59.4003 360.426 59.6011C360.474 59.8019 360.501 59.5907 360.553 59.6996C360.605 59.8085 360.515 59.9522 360.624 59.9879C360.732 60.0235 361.001 59.6457 361.026 59.4312C361.079 58.977 360.921 58.5127 361.211 58.6621C361.228 58.671 361.19 58.9223 361.253 58.9438C361.755 59.1063 362.265 59.0884 362.764 59.2288C362.833 59.2485 362.789 59.5282 362.829 59.5428C363.248 59.6956 363.075 59.2384 363.268 58.708C363.258 59.3994 363.407 59.8134 363.717 59.7993C363.903 59.7911 363.853 59.4923 363.961 59.2734C363.994 59.2074 364.138 59.4061 364.153 59.2633C364.205 58.7965 364.051 58.2863 364.382 58.4737C364.397 58.4827 364.367 58.7383 364.416 58.7508C364.735 58.8328 364.744 58.3471 365.079 58.2688C365.342 58.2073 365.831 58.4746 366.136 58.5049C366.175 59.2793 366.45 59.0854 366.534 58.5449C366.731 58.5553 366.941 58.5128 367.135 58.5755C367.202 58.5968 367.172 58.8234 367.182 58.8472C367.33 59.2196 367.385 58.6955 367.426 58.6726C367.873 58.448 368.269 58.8197 368.685 58.4095C368.699 58.3948 368.693 57.8556 368.833 58.2414C368.842 58.268 368.712 58.5211 368.919 58.5279C369.126 58.5349 369.531 58.8004 369.802 58.5346C369.868 58.4706 370.017 58.0239 370.177 58.3567C370.199 58.4019 370.187 58.5573 370.219 58.6415C370.323 58.9098 370.339 58.3636 370.468 58.8193C370.598 59.275 370.831 59.6082 371.101 59.2729C371.11 59.2631 371.153 58.8284 371.244 58.8299C371.389 58.8327 371.6 58.9104 371.751 58.8987C371.823 58.893 371.761 58.6283 371.773 58.6226C372.251 58.4443 372.611 58.6625 373.138 58.7356C373.235 58.7495 373.488 58.3687 373.69 58.6463C373.911 58.9501 373.78 60.2753 374.228 59.9352C374.409 59.7991 374.55 58.1193 374.939 58.9626C375.582 58.7104 376.215 59.1167 376.855 58.7729C376.884 58.7576 376.95 58.2872 377.02 58.2895C377.124 58.2937 377.193 58.5077 377.268 58.5177C377.581 58.5651 377.853 58.3627 378.152 58.3742C378.266 58.3781 378.24 58.6051 378.375 58.6098C378.511 58.6142 378.583 58.3131 378.774 58.4453C378.919 58.5462 379.092 59.1429 379.279 59.2027C379.251 58.6057 379.378 58.6107 379.592 58.4401C379.633 58.4071 379.575 58.2022 379.594 58.1758C379.671 58.064 379.757 58.2316 379.829 58.1105C379.846 58.0814 379.835 57.8776 379.849 57.8424C379.964 57.5346 380.21 57.98 380.252 58.0576C380.414 58.3522 380.466 58.0833 380.583 58.1962C380.701 58.309 380.544 58.4678 380.677 58.5327C380.953 58.6668 381.295 58.6139 381.566 58.6074C381.675 58.6035 381.585 58.3359 381.6 58.3291C381.82 58.247 382.063 58.5231 382.156 57.9741C382.393 59.3656 382.283 57.8304 382.619 58.0921C382.646 58.1133 382.716 58.7737 382.625 58.8766C382.534 58.9794 382.375 58.7809 382.25 58.9403C382.22 58.9778 382.074 59.609 382.052 59.6481C381.874 59.9533 381.789 58.9652 381.775 58.9114C381.624 58.3316 381.441 59.0132 381.385 59.0628C381.129 59.2902 380.893 59.1643 380.678 59.3285C380.537 59.4347 380.561 60.0838 380.444 60.0707C380.058 60.0275 379.871 59.1309 379.556 59.9362C379.489 60.1079 379.607 60.812 379.297 60.271C379.278 60.2369 379.042 59.7393 378.942 60.0686C378.93 60.1101 378.942 60.3166 378.924 60.3351C378.798 60.455 378.7 60.2956 378.561 60.3828C378.422 60.47 378.256 60.5976 378.088 60.5371C377.987 60.501 377.837 60.1237 377.784 60.0323C377.635 59.7687 377.517 60.222 377.415 59.8983C377.313 59.5729 377.447 59.0618 377.215 58.8613C377.238 59.3983 377.252 59.95 377.27 60.4903C376.789 60.4995 376.307 60.3536 375.827 60.4054C375.767 60.4124 375.845 60.6973 375.782 60.7122C375.514 60.7738 375.266 60.5819 374.991 60.6802C374.778 60.7573 374.558 61.0766 374.336 61.1668C374.162 60.561 373.837 60.789 373.59 60.7472C373.503 60.7328 373.499 60.5685 373.435 60.5186C373.194 60.3342 373.333 60.8704 373.275 60.9595C373.027 61.3396 372.932 60.113 372.615 60.162C372.598 60.1641 372.43 60.8307 372.404 60.8732C372.239 61.1495 372.361 60.6471 372.245 60.6053C372.034 60.529 371.881 60.3811 371.651 60.5869C371.583 60.6478 371.438 61.0657 371.283 60.7581C371.262 60.7179 371.259 60.5009 371.244 60.4891C370.969 60.2932 371.002 60.9735 370.865 61.2125C370.729 61.4514 370.47 60.9957 370.414 60.8632C370.271 60.5205 370.5 60.7081 370.505 60.6734C370.56 60.2602 370.395 60.3404 370.263 60.3134C370.206 59.648 370.027 59.6985 370.128 60.2882C370.139 60.3525 370.236 60.2845 370.263 60.3134C370.188 60.9741 369.995 61.0694 369.74 60.4711C369.62 60.1907 369.698 59.851 369.393 59.9914C369.255 60.0548 369.336 60.5106 369.219 60.643C368.95 60.9452 368.554 60.5387 368.264 60.6234C368.159 60.6541 368.277 60.8993 368.206 60.9289C368.016 61.0084 367.835 60.8299 367.646 60.9378C367.629 60.9479 367.687 61.2084 367.627 61.2153C367.17 61.2726 366.761 61.1275 366.282 61.1508C366.051 61.1621 365.646 61.3313 365.405 61.3162C364.987 61.2915 364.453 60.9389 364.104 61.0525C363.876 61.1255 363.942 61.3856 363.854 61.5706C363.683 61.9292 363.308 61.3267 363.257 61.233C363.255 61.2299 363.45 61.1562 363.336 61.0274C363.258 60.7497 363.259 61.2316 363.257 61.233C363.223 61.1725 362.822 61.136 362.746 61.1909C362.705 61.2209 362.743 61.4687 362.721 61.4796C362.203 61.7337 361.674 61.8282 361.127 61.7432C361.118 61.7387 361.116 61.4591 361.093 61.452C360.773 61.3463 360.593 61.699 360.348 61.9166C360.102 62.134 359.894 62.0781 359.714 61.6085C359.523 61.6801 359.232 61.4848 359.064 61.3658C358.896 61.2468 358.905 61.7907 358.892 61.8023C358.472 62.1714 358.199 61.8756 357.74 61.854C357.521 61.8427 357.095 61.9466 356.864 62.0197C356.681 62.0783 356.561 61.9577 356.395 62.049C356.372 62.0612 356.41 62.3015 356.403 62.3112C356.229 62.6114 356.286 62.0154 356.241 61.9122C356.075 61.537 355.975 61.3378 355.741 61.5326C355.687 61.5772 355.572 62.4373 355.472 62.493C355.342 62.5639 355.375 62.2562 355.239 62.3382C355.228 62.3449 355.241 62.5328 355.154 62.5296C354.751 62.517 354.307 62.4332 353.891 62.4764C353.834 62.4815 353.925 62.7756 353.843 62.788C353.459 62.8459 353.035 62.8596 352.651 62.7419C352.556 62.712 352.602 62.4998 352.578 62.4389C352.433 62.0709 352.29 62.6263 352.262 62.6384C351.588 62.9407 351.033 62.4781 350.344 62.754C350.307 62.77 350.047 63.3717 349.886 62.8781C349.876 62.8452 349.716 62.34 349.621 62.6973C349.616 62.7197 349.712 62.979 349.569 62.9603C349.426 62.9417 349.21 63.1313 348.999 62.8525C348.932 62.7648 348.757 62.2617 348.597 62.6802C348.587 62.7093 348.358 63.6479 348.22 63.0177C348.197 62.9139 348.175 62.2397 347.977 62.5976C347.939 62.667 348.023 62.8127 347.919 62.9129C347.759 63.0673 347.524 62.9 347.335 63.2121C347.302 63.2673 347.174 63.7332 347.031 63.3936C347.008 63.3404 347.032 63.1135 346.965 63.0922C346.648 62.9896 346.332 63.1589 346.008 63.0218C345.893 62.9737 345.929 62.607 345.807 62.5164C345.685 62.4259 345.446 62.3459 345.334 62.5191C345.222 62.6923 345.388 63.2636 345.209 63.3206C344.428 63.5682 343.623 63.2743 342.829 63.2709C342.711 63.2703 342.821 63.4719 342.648 63.4859C342.011 63.5386 340.922 63.7972 340.343 63.3892C339.879 63.0624 340.421 62.7613 340.074 62.6376C339.907 62.5787 339.769 63.2623 339.731 63.2858C339.358 63.5237 339.073 63.2411 338.731 63.3528C338.66 63.376 338.747 63.6448 338.686 63.6615C338.481 63.721 338.255 63.612 338.057 63.6459C337.968 63.6617 337.997 63.8692 337.914 63.8579C337.715 63.8333 337.536 63.7559 337.333 63.5717C337.315 63.5549 337.417 63.2888 337.271 63.2876C337.035 63.2865 336.732 63.1109 336.472 63.3257C336.395 63.3903 336.42 63.8668 336.228 63.5479C336.188 63.4814 336.201 62.9067 336.028 63.4127C335.999 63.4968 335.7 64.1831 335.509 63.7631C335.459 63.6526 335.32 63.1911 335.228 63.2703C335.215 63.2828 335.283 63.5356 335.204 63.5652C334.927 63.6652 334.629 63.6552 334.344 63.7522C334.268 63.7787 334.399 64.0367 334.285 64.0676C333.971 64.1531 333.571 64.1088 333.256 64.0441C333.14 64.0197 333.206 63.7958 333.196 63.7724C333.04 63.392 332.991 63.9206 332.948 63.9538C332.683 64.1529 332.458 63.919 332.207 63.9991C332.138 64.0205 332.202 64.2674 332.19 64.2905C332.057 64.5167 332.139 64.0617 332.044 64.0176C331.779 63.8926 331.493 63.9294 331.235 63.9765C331.14 63.9942 331.264 64.2776 331.179 64.2901C330.674 64.3697 330.145 64.3729 329.64 64.2421C329.545 64.2169 329.59 63.9904 329.568 63.9406C329.413 63.592 329.245 64.0897 329.203 64.1387C329.01 64.3621 328.918 64.1695 328.739 64.217C327.863 64.4521 326.761 64.3854 325.919 64.3536C324.823 64.3134 323.964 64.1506 322.928 64.2665C322.862 64.2736 322.946 64.5665 322.889 64.5764C322.158 64.6909 321.427 64.6172 320.695 64.746C320.635 64.7561 320.738 65.0323 320.642 65.0579C320.446 65.1123 320.193 65.1118 319.986 65.0337C319.885 64.9961 320.003 64.747 319.902 64.7142C319.666 64.6371 319.418 64.6315 319.185 64.6904C319.085 64.7161 319.254 64.995 319.123 65.0059C318.234 65.0865 317.362 65.1872 316.44 64.8672C316.377 64.8452 316.289 64.2636 316.164 64.3834C316.164 64.5463 316.176 64.7371 316.181 64.9109C314.89 65.0801 313.595 64.9523 312.293 64.997C312.238 64.9989 312.351 65.3032 312.245 65.3086C311.63 65.3399 311.038 65.4606 310.392 65.1893C310.328 65.1629 310.328 64.6159 310.149 64.7091C310.118 64.726 309.845 64.8149 309.781 64.9374C309.772 64.9558 309.837 65.2073 309.749 65.2199C309.233 65.2888 308.686 65.2625 308.16 65.1372C308.075 65.1165 308.148 64.8404 308.087 64.8233C307.657 64.7041 307.21 64.9369 306.793 64.7145C306.513 64.5646 306.586 64.0904 306.416 63.6378C306.391 63.5739 306.224 63.5734 306.199 63.3056C306.138 62.6324 306.176 61.8892 306.1 61.1722C306.084 61.0177 305.87 61.1976 305.981 60.8156C305.989 60.79 306.144 60.6564 306.176 60.5271C306.199 60.4377 306.133 60.1678 306.183 60.0522C306.233 59.9366 306.309 60.1616 306.395 60.0241C306.482 59.885 306.422 59.5771 306.608 59.5294ZM358.308 60.8342C358.144 60.5823 358.178 61.538 358.326 61.3003C358.333 61.2876 358.317 60.8465 358.308 60.8342ZM376.267 59.6335C376.049 59.2239 375.952 59.8506 376.108 60.1678C376.264 60.4845 376.334 59.7577 376.267 59.6335ZM378.263 59.2085C378.016 58.8898 378.06 60.2454 378.287 59.9576C378.3 59.9413 378.277 59.227 378.263 59.2085ZM307.073 63.4676C307.07 63.4551 306.949 63.4497 306.947 63.4625C306.901 63.7693 307.142 63.7798 307.073 63.4676ZM380.241 58.7572C380.159 58.5782 379.968 58.8015 380.069 59.024C380.151 59.203 380.342 58.9798 380.241 58.7572ZM350.502 60.2682C350.499 60.2541 350.412 60.2463 350.418 60.3266C350.439 60.5852 350.555 60.5051 350.502 60.2682ZM383.636 58.5432C383.131 58.5215 382.761 57.4213 383.315 57.5155C383.415 57.5326 383.123 57.8845 383.254 57.9779C383.496 58.1481 383.608 57.4372 383.865 57.7996C383.911 57.866 383.664 58.5469 383.635 58.5448C383.635 58.5442 383.635 58.5437 383.636 58.5432ZM358.156 59.6927C358.152 59.6803 358.032 59.6753 358.03 59.688C357.983 59.9948 358.225 60.005 358.156 59.6927ZM345.443 59.9716C345.435 59.9451 345.157 59.9361 345.15 59.9614C345.034 60.4653 345.597 60.485 345.443 59.9716ZM366.142 58.5253C366.254 58.2128 366.407 58.1679 366.533 58.5446C366.403 58.5318 366.273 58.5364 366.142 58.5253ZM347.829 112.885C347.946 112.524 348.269 112.152 348.563 111.897C348.654 111.816 348.77 111.953 348.84 111.902C348.976 111.801 348.979 111.633 349.125 111.541C349.174 111.51 349.372 111.702 349.419 111.667C349.67 111.475 349.753 111.201 349.954 110.974C350.942 109.856 351.763 108.668 352.624 107.454C352.908 107.053 353.42 106.666 353.586 106.177C353.605 106.12 353.384 106.03 353.373 106.01C353.207 105.707 353.587 106 353.7 105.933C354.147 105.668 354.424 105.243 354.569 104.819C354.63 104.638 354.132 104.561 354.454 104.533C354.476 104.53 354.667 104.699 354.716 104.668C354.827 104.599 354.901 104.386 354.964 104.319C355.086 104.19 355.098 104.164 355.185 104.024C355.304 103.834 355.547 103.668 355.621 103.432C355.636 103.381 355.381 103.309 355.385 103.217C355.389 103.124 355.518 102.948 355.607 102.916C355.697 102.884 355.854 103.014 355.901 103.026C356.291 103.133 355.954 102.642 355.959 102.607C356.063 101.985 356.584 101.707 356.865 101.231C357.078 100.87 357.219 100.432 357.434 100.096C357.691 99.6956 358.016 99.4196 358.231 99.0099C358.254 98.9669 357.966 98.8624 357.993 98.8095C358.285 98.2473 358.633 97.7235 359.129 97.2852C359.179 97.2414 359.366 97.4463 359.429 97.4106C359.813 97.1889 360.575 96.9291 359.7 96.1444C359.872 95.9421 360.074 95.6924 360.393 95.6093C360.598 95.5556 360.772 95.8287 360.76 95.6064C360.758 95.5565 360.513 95.4746 360.526 95.4094C360.581 95.135 360.799 94.9286 360.819 94.6373C360.823 94.5778 360.621 94.4749 360.594 94.4412C360.374 94.1642 360.951 94.2609 361.008 94.2416C361.441 94.0913 361.471 93.8123 361.643 93.5356C361.683 93.4715 361.376 93.3935 361.405 93.3262C361.56 92.9794 361.782 92.6564 362.086 92.4073C362.154 92.3522 362.338 92.5492 362.383 92.5296C362.574 92.4418 362.173 92.1596 362.348 92.0705C362.385 92.0514 362.565 92.1813 362.59 92.1882C362.969 92.297 362.548 91.9463 362.55 91.9181C362.575 91.5551 363.168 91.6643 363.259 91.3532C363.269 91.3157 362.985 91.2457 363.029 91.149C363.321 90.504 363.766 89.9027 364.314 89.4176C364.399 89.342 364.541 89.5159 364.567 89.5232C364.973 89.6344 364.541 89.2955 364.542 89.2547C364.557 88.9399 365.082 88.9482 364.621 88.4554C365.415 87.5546 365.701 86.3586 366.796 85.6473C366.81 85.6379 367.027 85.7973 367.052 85.778C367.364 85.547 366.971 85.394 366.653 84.9312C366.573 84.8148 367.195 84.972 367.241 84.9811C367.414 85.0154 367.726 85.2706 367.764 85.2701C368.063 85.2594 366.916 84.6108 367.027 84.4227C367.032 84.4179 367.226 84.5662 367.257 84.5627C367.351 84.5523 367.297 84.4546 367.397 84.4492C367.628 84.4379 368.202 84.725 367.981 84.3675C367.952 84.3217 367.289 83.9733 367.419 83.8235C367.471 83.7641 367.635 83.4615 367.726 83.4032C367.817 83.345 367.991 83.5246 368.003 83.524C368.409 83.463 368.473 83.6149 368.945 83.7432C369.415 83.8707 368.433 83.3309 368.352 83.2216C368.272 83.1124 368.595 83.0825 368.697 83.0888C368.8 83.0952 368.902 83.2233 368.967 83.2139C369.399 83.149 368.551 82.8265 368.444 82.6578C368.19 82.2591 368.99 82.539 369.16 82.4118C369.206 82.3774 369.021 82.3182 369.03 82.2686C369.067 82.0733 369.348 82.1086 369.251 81.8044C369.236 81.7547 368.894 81.3523 369.266 81.4432C369.319 81.4566 369.475 81.6006 369.555 81.5557C369.676 81.4887 369.824 81.3272 369.83 81.1818C369.834 81.0745 369.485 80.9938 369.637 80.9455C369.704 80.9241 369.826 81.1101 369.939 81.0615C370.051 81.0133 370.172 80.7915 370.216 80.7053C370.258 80.6192 370.009 80.5325 369.998 80.517C369.936 80.4257 369.922 80.2037 369.931 80.1899C370.322 79.4677 371.082 79.0389 371.365 78.2779C371.388 78.2184 371.132 78.1153 371.133 78.1047C371.143 77.8618 371.682 78.3771 371.967 78.3718C371.479 78.1083 371.611 78.0832 371.636 77.9222C371.647 77.8444 371.442 77.7692 371.427 77.7523C371.202 77.4934 371.602 77.643 371.686 77.6702C371.995 77.7699 371.713 77.5124 371.919 77.5783C372.125 77.6434 372.336 77.8984 372.406 77.7716C372.256 77.6356 371.756 77.4643 371.74 77.3268C371.678 76.8076 372.423 76.3475 372.629 76.0816C372.835 75.8163 372.859 75.705 373.019 75.5744C373.309 75.3386 372.913 75.2534 372.873 74.9763C372.833 74.6987 373.592 75.2719 373.783 75.3484C373.974 75.4254 373.811 75.2899 373.927 75.3138C374.042 75.3378 374.119 75.4795 374.201 75.4235C374.283 75.3674 374.097 74.9716 373.93 74.8359C373.577 74.5484 373.114 74.403 373.378 74.2828C373.394 74.276 373.585 74.441 373.633 74.4087C374.01 74.148 374.241 73.7819 374.598 73.5104C374.648 73.4733 374.86 73.6582 374.891 73.6382C375.22 73.4301 374.755 73.2991 374.406 72.8716C374.978 73.2597 375.394 73.3842 375.532 73.16C375.615 73.0253 375.342 72.8953 375.211 72.6991C375.172 72.6401 375.407 72.6492 375.295 72.5596C374.931 72.2662 374.431 72.0928 374.747 71.9646C374.761 71.9594 374.96 72.1211 374.994 72.0936C375.216 71.9161 374.816 71.642 374.911 71.365C374.987 71.1478 375.445 70.9537 375.617 70.7575C376.281 71.1572 376.252 70.8584 375.842 70.5015C375.945 70.3695 376.011 70.1995 376.156 70.0987C376.206 70.0639 376.381 70.2096 376.405 70.216C376.787 70.3177 376.376 69.9905 376.377 69.9492C376.405 69.5133 376.906 69.4413 376.763 68.9254C376.758 68.907 376.306 68.6142 376.695 68.7291C376.721 68.7374 376.87 68.9678 376.975 68.8271C377.08 68.6864 377.497 68.55 377.405 68.2141C377.384 68.133 377.083 67.7824 377.438 67.8539C377.486 67.8639 377.61 67.9575 377.695 67.9816C377.969 68.0574 377.521 67.7452 377.963 67.9059C378.406 68.0665 378.796 68.0871 378.646 67.714C378.642 67.7026 378.3 67.4329 378.345 67.3702C378.418 67.2702 378.584 67.166 378.647 67.0542C378.677 67.0006 378.426 66.8979 378.427 66.8862C378.509 66.4545 378.864 66.3233 379.178 65.9954C379.236 65.9356 379.041 65.549 379.369 65.5611C379.729 65.5738 380.771 66.3963 380.703 65.8958C380.676 65.6944 379.344 64.6702 380.234 64.8635C380.333 64.2751 380.976 64.0574 380.998 63.4209C380.999 63.3924 380.639 63.0868 380.674 63.0392C380.728 62.9691 380.939 63.0385 380.984 62.992C381.174 62.7997 381.136 62.4983 381.289 62.2955C381.347 62.2182 381.524 62.3618 381.593 62.2697C381.662 62.1775 381.446 61.9608 381.648 61.9003C381.802 61.8551 382.383 62.063 382.523 61.9652C382.011 61.6557 382.076 61.5701 382.037 61.3264C382.03 61.2794 381.831 61.2071 381.818 61.1795C381.761 61.0644 381.943 61.0963 381.876 60.9795C381.86 60.9513 381.685 60.8466 381.662 60.8177C381.461 60.5676 381.951 60.6416 382.036 60.6548C382.359 60.7042 382.16 60.5198 382.311 60.5C382.461 60.4803 382.518 60.6769 382.637 60.6197C382.881 60.5011 383.001 60.2336 383.127 60.0402C383.176 59.9624 382.909 59.8776 382.911 59.8632C382.948 59.6645 383.295 59.6468 382.882 59.2798C384.156 59.8811 382.823 59.1119 383.203 59.0212C383.234 59.0144 383.819 59.329 383.861 59.4493C383.902 59.5695 383.661 59.571 383.733 59.7464C383.75 59.7878 384.206 60.2375 384.228 60.2748C384.397 60.5669 383.532 60.082 383.481 60.0618C382.925 59.8477 383.405 60.3514 383.419 60.4178C383.486 60.7217 383.267 60.817 383.3 61.0579C383.321 61.2148 383.874 61.5562 383.807 61.6301C383.585 61.8763 382.748 61.5123 383.267 62.176C383.378 62.3178 384.022 62.6233 383.422 62.5414C383.384 62.5362 382.856 62.4264 383.082 62.6777C383.111 62.7094 383.289 62.8144 383.296 62.8377C383.335 62.9913 383.155 62.9717 383.161 63.1169C383.167 63.2621 383.193 63.4483 383.062 63.5324C382.983 63.5833 382.597 63.4797 382.495 63.4662C382.203 63.4253 382.525 63.7571 382.206 63.6499C381.885 63.5424 381.523 63.1672 381.245 63.2183C381.704 63.498 382.17 63.7926 382.63 64.0775C382.406 64.4185 382.052 64.6749 381.864 65.0388C381.841 65.0842 382.116 65.1867 382.098 65.2392C382.021 65.4598 381.742 65.5272 381.691 65.7735C381.653 65.9648 381.814 66.2943 381.782 66.4991C381.193 66.2869 381.227 66.639 381.073 66.7888C381.019 66.8414 380.88 66.7536 380.808 66.7708C380.538 66.8375 381.052 67.0358 381.099 67.1253C381.296 67.5086 380.227 66.8988 380.116 67.1469C380.11 67.1598 380.585 67.6445 380.608 67.6861C380.759 67.9535 380.398 67.5916 380.308 67.6494C380.142 67.755 379.946 67.7799 380.006 68.0544C380.025 68.135 380.303 68.4668 379.972 68.4058C379.928 68.3979 379.746 68.2802 379.729 68.2843C379.433 68.3684 380.016 68.7203 380.15 68.9474C380.284 69.1745 379.779 69.1043 379.642 69.0698C379.287 68.9814 379.554 68.9244 379.527 68.902C379.209 68.6361 379.196 68.7955 379.111 68.8722C378.528 68.5458 378.484 68.6981 379.024 68.9532C379.083 68.9808 379.073 68.8757 379.111 68.8722C379.625 69.2888 379.612 69.4766 378.99 69.3249C378.699 69.2537 378.453 69.0124 378.423 69.3025C378.41 69.434 378.829 69.6283 378.883 69.7833C379.006 70.1374 378.476 70.1897 378.407 70.439C378.382 70.5295 378.644 70.5817 378.634 70.648C378.609 70.8242 378.373 70.8527 378.372 71.044C378.372 71.0615 378.617 71.1643 378.594 71.2102C378.422 71.5606 378.104 71.7662 377.893 72.1134C377.792 72.2812 377.738 72.6572 377.609 72.8173C377.387 73.0956 376.837 73.2735 376.763 73.58C376.715 73.7793 376.963 73.8765 377.075 74.0404C377.292 74.3574 376.609 74.2871 376.506 74.2712C376.503 74.2706 376.535 74.0936 376.373 74.1023C376.104 74.0038 376.506 74.269 376.506 74.2712C376.44 74.2613 376.216 74.5213 376.225 74.6047C376.23 74.65 376.456 74.7597 376.454 74.7809C376.416 75.2831 376.241 75.7046 375.907 76.039C375.899 76.0434 375.665 75.8907 375.648 75.9027C375.406 76.0675 375.613 76.3876 375.676 76.679C375.74 76.9703 375.593 77.0849 375.114 76.952C375.082 77.1246 374.779 77.2202 374.599 77.2719C374.419 77.3235 374.878 77.6168 374.881 77.6325C374.986 78.1293 374.609 78.1566 374.369 78.4655C374.255 78.6118 374.137 78.9665 374.086 79.1685C374.047 79.3286 373.889 79.3455 373.885 79.512C373.884 79.5344 374.103 79.6406 374.108 79.6506C374.274 79.9376 373.805 79.5691 373.697 79.5441C373.304 79.4528 373.09 79.413 373.14 79.6838C373.151 79.7461 373.813 80.3002 373.811 80.4007C373.808 80.5306 373.567 80.3382 373.57 80.4781C373.57 80.49 373.733 80.5841 373.689 80.643C373.484 80.9177 373.201 81.1813 373.037 81.4954C373.014 81.5379 373.302 81.6369 373.273 81.7008C373.137 82.0009 372.944 82.3043 372.661 82.5078C372.591 82.5574 372.436 82.4084 372.374 82.3914C371.997 82.2901 372.391 82.6961 372.388 82.7225C372.316 83.3592 371.663 83.4924 371.562 84.1249C371.557 84.1599 371.934 84.673 371.445 84.513C371.412 84.5025 370.914 84.3357 371.167 84.5984C371.182 84.6148 371.445 84.6905 371.361 84.7799C371.276 84.8693 371.33 85.1252 370.996 85.1189C370.891 85.1171 370.387 84.9621 370.659 85.3041C370.679 85.3273 371.351 86.0045 370.759 85.7536C370.662 85.7121 370.089 85.356 370.292 85.6919C370.332 85.7566 370.494 85.7778 370.527 85.9061C370.579 86.103 370.327 86.1743 370.495 86.4788C370.526 86.5323 370.853 86.8779 370.501 86.7911C370.445 86.7775 370.267 86.636 370.218 86.6708C369.98 86.8357 369.969 87.1495 369.699 87.3002C369.603 87.3537 369.315 87.1266 369.18 87.1619C369.046 87.1971 368.864 87.3204 368.955 87.494C369.045 87.6676 369.602 87.8661 369.563 88.0229C369.394 88.7044 368.762 89.1044 368.377 89.657C368.319 89.7389 368.54 89.7736 368.469 89.9019C368.206 90.3755 367.898 91.2787 367.279 91.4582C366.783 91.602 366.793 91.0575 366.523 91.2317C366.393 91.3161 366.897 91.7889 366.898 91.8285C366.917 92.22 366.544 92.2635 366.473 92.5636C366.458 92.6256 366.724 92.7135 366.709 92.7648C366.66 92.9411 366.46 93.0388 366.393 93.1956C366.364 93.2662 366.551 93.3605 366.501 93.4124C366.385 93.5375 366.234 93.6198 365.983 93.6601C365.96 93.6638 365.788 93.4454 365.716 93.5468C365.602 93.7111 365.309 93.8262 365.364 94.1256C365.381 94.2148 365.79 94.4602 365.432 94.4185C365.357 94.4099 364.884 94.0843 365.223 94.4835C365.279 94.5501 365.707 95.1372 365.265 95.0391C365.149 95.0133 364.697 94.856 364.718 94.9642C364.723 94.9797 364.966 95.072 364.953 95.1432C364.903 95.3919 364.752 95.594 364.695 95.8467C364.681 95.9144 364.959 95.9653 364.93 96.062C364.85 96.3279 364.621 96.5829 364.415 96.7672C364.339 96.835 364.184 96.6653 364.16 96.6592C363.767 96.5588 364.185 96.8841 364.192 96.9321C364.23 97.2273 363.927 97.2554 363.873 97.4747C363.857 97.5348 364.094 97.6259 364.108 97.6475C364.232 97.8646 363.892 97.5567 363.81 97.5985C363.578 97.715 363.471 97.9348 363.386 98.1411C363.355 98.2171 363.652 98.2865 363.621 98.353C363.444 98.7493 363.192 99.1207 362.84 99.4011C362.774 99.4536 362.607 99.2969 362.554 99.2851C362.189 99.2011 362.523 99.5927 362.544 99.6493C362.637 99.9073 362.433 99.865 362.386 100.016C362.161 100.757 361.575 101.49 361.143 102.06C360.582 102.804 360.033 103.313 359.631 104.101C359.605 104.151 359.89 104.254 359.871 104.299C359.614 104.873 359.201 105.342 358.957 105.924C358.936 105.972 359.216 106.052 359.191 106.133C359.142 106.3 359.02 106.477 358.855 106.578C358.776 106.627 358.625 106.408 358.548 106.46C358.371 106.582 358.247 106.752 358.184 106.948C358.157 107.032 358.471 107.068 358.417 107.165C358.057 107.83 357.721 108.494 357.011 108.962C356.962 108.994 356.434 108.735 356.474 108.888C356.61 108.978 356.775 109.075 356.922 109.166C356.442 110.161 355.712 110.995 355.123 111.929C355.098 111.968 355.406 112.057 355.36 112.134C355.09 112.581 354.906 113.06 354.369 113.362C354.316 113.392 353.86 113.091 353.852 113.267C353.851 113.298 353.794 113.538 353.865 113.65C353.876 113.666 354.117 113.759 354.085 113.828C353.894 114.226 353.609 114.593 353.251 114.892C353.193 114.94 352.998 114.737 352.955 114.77C352.648 115.004 352.628 115.445 352.241 115.613C351.982 115.726 351.621 115.414 351.162 115.283C351.097 115.265 351.016 115.382 350.781 115.251C350.19 114.923 349.588 114.487 348.954 114.145C348.818 114.071 348.865 114.319 348.6 114.032C348.582 114.012 348.545 113.83 348.453 113.736C348.389 113.671 348.132 113.568 348.06 113.47C347.988 113.371 348.212 113.442 348.139 113.306C348.064 113.169 347.779 113.041 347.829 112.885ZM373.793 77.5065C373.504 77.482 374.317 77.9851 374.19 77.7512C374.182 77.7393 373.807 77.5074 373.793 77.5065ZM381.433 64.3055C380.986 64.2325 381.462 64.6454 381.801 64.7113C382.141 64.777 381.568 64.3274 381.433 64.3055ZM382.038 62.6782C381.654 62.6745 382.805 63.3913 382.674 63.0742C382.667 63.056 382.061 62.6783 382.038 62.6782ZM351.336 114.731C351.324 114.726 351.262 114.807 351.271 114.816C351.505 115.017 351.63 114.854 351.336 114.731ZM382.614 61.0482C382.425 61.0065 382.519 61.2633 382.754 61.3152C382.942 61.357 382.848 61.1 382.614 61.0482ZM369.565 82.645C369.551 82.6395 369.503 82.6958 369.573 82.7356C369.799 82.8635 369.788 82.7387 369.565 82.645ZM384.069 58.5602C383.808 58.9006 382.713 58.5522 383.058 58.2175C383.12 58.1569 383.273 58.5552 383.414 58.5147C383.672 58.4401 383.133 57.9701 383.559 57.9904C383.637 57.9944 384.086 58.542 384.07 58.5616C384.069 58.5611 384.069 58.5606 384.069 58.5602ZM372.767 76.9839C372.755 76.9797 372.693 77.0606 372.703 77.0691C372.936 77.2709 373.061 77.1079 372.767 76.9839ZM366.883 86.0134C366.857 86.0045 366.716 86.1936 366.734 86.2129C367.098 86.5711 367.385 86.1894 366.883 86.0134ZM375.636 70.7646C375.43 70.5141 375.466 70.3821 375.841 70.5017C375.768 70.5858 375.709 70.6793 375.636 70.7646Z" fill="#FFEA7E"/>
</svg>
