<svg preserveAspectRatio="none" overflow="visible" style="display: block;" width="199.99" height="87.2788" viewBox="0 0 199.99 87.2788" fill="none" xmlns="http://www.w3.org/2000/svg">
<path id="Vector 234254432" d="M198.824 42.1708C197.818 43.1801 196.39 44.4006 195.329 45.2397C194.977 45.5201 195.081 45.2927 194.831 45.486C194.303 45.8974 194 46.2278 193.513 46.5875C193.356 46.7024 193.433 46.4222 193.27 46.5456C192.341 47.2544 191.618 47.9241 190.713 48.6394C186.291 52.1248 182.011 55.3868 177.403 58.6355C175.899 59.696 173.961 60.8827 172.423 62.0103C172.241 62.1433 172.432 62.1847 172.403 62.2184C171.948 62.7447 171.972 62.3826 171.586 62.5984C170.073 63.4423 168.476 64.4784 167.089 65.4307C166.513 65.8273 167.256 65.6866 166.576 65.9329C166.529 65.9502 166.598 65.7279 166.427 65.8176C166.04 66.0212 165.35 66.4871 165.054 66.6576C164.483 66.9856 164.39 67.0444 163.856 67.3711C163.115 67.8227 162.237 68.2664 161.469 68.7633C161.305 68.8692 161.605 68.8702 161.352 69.0511C161.099 69.2323 160.381 69.639 160.122 69.7478C159.863 69.8567 159.904 69.6923 159.848 69.6931C159.378 69.6964 158.718 70.4492 158.617 70.5155C156.762 71.7311 154.969 72.5013 153.131 73.4671C151.727 74.2056 150.229 75.0316 148.871 75.6833C147.248 76.4619 145.821 77.0358 144.234 77.761C144.066 77.8374 144.337 77.9147 144.132 78.0084C141.945 79.0039 139.734 79.9003 137.457 80.6416C137.228 80.7157 137.46 80.4568 137.229 80.5217C135.813 80.9277 133.538 81.4012 132.933 82.332C131.984 82.6259 130.825 82.9705 129.935 83.0984C129.361 83.1805 129.842 82.8527 129.192 83.1275C129.045 83.189 129.286 83.2749 129.062 83.356C128.118 83.6974 127.053 83.9491 126.114 84.2824C125.923 84.3504 126.012 84.4675 125.963 84.5059C125.548 84.8227 124.688 84.7043 124.514 84.7229C123.182 84.8731 122.259 85.1585 121.046 85.4146C120.765 85.4734 121.135 85.5815 120.865 85.6442C119.465 85.967 118.002 86.2242 116.6 86.3689C116.288 86.4004 116.547 86.2011 116.397 86.2082C115.737 86.2398 115.636 86.552 115.002 86.5797C114.868 86.5856 114.924 86.4431 114.897 86.4321C114.49 86.258 114.208 86.6237 114.112 86.6437C112.898 86.9011 112.076 86.6514 110.894 86.811C110.752 86.8301 111.089 86.9687 110.689 87.0119C108.028 87.2994 105.185 87.3594 102.542 87.1688C102.131 87.1392 102.428 87.019 102.402 87.0029C101.988 86.7497 101.707 87.0669 101.572 87.0747C100.51 87.1275 99.543 86.7938 98.7968 87.1278C94.935 86.7217 91.0833 86.2392 87.3829 85.0704C86.8161 84.8908 86.2518 84.6914 85.6916 84.4708C85.6388 84.4504 85.7825 84.3261 85.6773 84.2861C84.4109 83.793 84.5851 84.1065 83.6196 84.0981C83.3698 84.0931 82.8635 83.5153 82.8156 83.4676C82.6448 83.2975 82.9416 83.1527 82.8796 83.1089C82.3674 82.7534 82.1777 83.531 81.4022 83.2239C81.3785 83.213 81.5341 83.1183 81.4747 83.0789C81.2905 82.9562 81.0691 82.9287 80.8912 82.801C80.4844 82.5061 80.4756 82.087 79.7037 81.9935C79.6078 81.9823 79.5562 82.4536 78.8953 82.1329C78.6323 82.0078 77.448 81.4598 77.1297 81.268C76.812 81.0799 77.1029 81.0613 77.082 81.0441C76.2791 80.4329 76.6514 80.5279 76.3372 80.0515C76.0247 79.5741 75.8388 80.2347 75.6277 80.2101C75.417 80.186 74.8603 79.7123 74.7321 79.5799C74.6038 79.4483 74.8399 79.4712 74.7176 79.3699C73.9063 78.6969 74.1579 79.4452 73.8055 79.3735C72.971 79.2002 72.6636 78.4485 72.0426 78.0267C71.8748 77.9125 71.9589 78.0941 71.8012 78.0133C71.1795 77.6915 70.9 77.3408 70.1425 77.0396C70.0191 76.9909 69.3058 76.8987 69.0664 76.4837C69.033 76.4246 69.2435 76.4117 69.0032 76.2247C68.6447 75.946 67.9702 75.4726 67.5546 75.2448C67.2432 75.0738 67.4668 75.4701 67.1313 75.1687C66.9825 75.0343 67.3545 75.1401 67.0696 74.8959C66.7864 74.6539 65.9985 74.1197 65.6977 73.9137C65.3974 73.7091 65.4713 73.9503 65.4412 73.9421C65.261 73.89 64.645 73.546 64.5945 73.5092C62.0622 71.7265 59.9492 69.7606 57.5653 67.919C57.3773 67.7732 57.3956 68.0004 57.3659 67.9794C56.6929 67.5139 57.466 67.5867 57.121 67.1117C56.973 67.421 56.7478 67.157 56.2898 66.8205C56.0689 66.6583 56.1001 66.8527 56.0725 66.8468C55.6355 66.7351 55.5824 66.3582 55.5604 66.2718C55.4784 65.9527 55.1095 65.9332 55.0527 65.7171C54.9957 65.5019 55.4374 65.6346 55.0217 65.2808C54.8278 65.2711 54.9328 65.7721 54.5848 65.5391C53.2621 64.6596 51.2428 62.5235 50.3359 61.6471C49.4271 60.7749 49.1117 60.5069 48.6102 59.976C47.7036 59.0111 47.8967 59.5115 47.2287 59.0196C46.5599 58.5238 47.2437 58.3924 47.243 58.2223C47.244 58.0537 47.0655 58.0561 47.0082 57.9073C46.9513 57.7589 47.2331 57.916 47.0073 57.6624C46.7812 57.4092 45.9661 56.9166 45.7907 56.9229C45.4198 56.9376 45.5181 57.4336 44.948 56.7314C44.9154 56.6909 45.1397 56.7024 45.0096 56.5527C43.9736 55.367 42.8303 54.2022 41.8109 53.006C41.6707 52.8412 41.9244 52.8639 41.8443 52.7667C41.0118 51.7533 41.1356 52.2839 40.4139 51.9819C40.8247 51.8113 40.7323 51.3508 40.0526 50.6313C39.6445 50.1982 39.5836 50.3968 39.2266 50.2042C39.1192 50.1464 38.9214 49.7545 38.8073 49.7571C38.432 49.763 38.4771 50.2684 37.8676 49.4335C37.8412 49.3965 38.0504 49.3977 37.9511 49.2775C37.3108 48.4999 37.0154 48.6093 36.2554 47.8334C35.6579 47.2234 34.7833 45.9941 34.1532 45.2456C34.5134 44.95 33.8243 44.3386 33.3382 44.2741C32.9308 43.7953 32.4695 43.2994 32.1047 42.8157C31.9791 42.6493 32.1706 42.6632 32.1642 42.6339C32.0717 42.1812 31.6586 42.1827 31.5608 42.0891C30.4984 41.0502 29.8974 39.9871 28.8191 39.0754C28.7809 39.0431 28.4819 39.1912 28.4218 38.7547C28.4188 38.7258 28.8276 38.981 28.4141 38.4747C27.9945 37.9614 27.3208 36.8893 26.6228 36.2834C26.4536 36.1364 25.8945 35.8738 25.7688 35.3989C25.7524 35.3352 25.8654 35.3264 25.8507 35.2273C25.8014 34.9089 25.4527 35.0001 25.4614 34.5729C25.4661 34.1408 25.1878 33.4737 24.4565 32.8774C24.4336 32.8581 24.0943 32.8515 23.915 32.6235C23.6287 32.2594 23.2604 31.7166 22.9601 31.3449C22.8162 31.167 22.7822 31.3819 22.7551 31.3528C21.7143 30.1983 21.1171 29.2144 20.1523 27.8829C19.9787 27.6426 19.2618 27.0813 19.03 26.499C18.7794 25.8652 19.811 25.909 18.7514 24.8437C18.3212 24.4081 17.089 24.45 16.8285 23.2494C15.4371 21.6311 14.5068 19.9439 13.1026 18.3481C13.0404 18.2774 12.6397 18.2051 12.5137 18.027C12.3265 17.7615 12.3299 17.5449 12.1988 17.3512C11.6271 16.5029 11.0015 15.8313 10.4691 15.0632C10.2675 14.7725 10.4489 14.7932 10.2111 14.4495C9.96741 14.0974 9.64008 13.9466 9.36728 13.4164C9.16096 13.0143 9.20152 12.4436 8.9057 11.9525C8.59394 12.1333 8.39929 11.8465 7.88889 11.2863C7.79178 11.1803 7.77759 11.3772 7.72638 11.3307C7.5158 11.1434 7.45641 10.8786 7.253 10.7105C7.20371 10.6695 7.10163 10.7375 7.05574 10.708C6.66026 10.4583 6.49464 9.73828 6.46871 9.61674C6.36788 9.15234 6.11121 9.06198 5.95857 8.71517C5.80959 8.37344 6.19399 8.77167 5.98758 8.39637C5.5464 7.59914 4.98865 6.82067 4.45275 6.02189C4.25514 5.72824 4.2554 6.01993 4.22395 5.98002C3.76779 5.38184 3.58286 4.79541 3.04426 4.5778C3.45786 3.68065 2.70851 4.22509 2.31287 3.32557C2.28333 3.25638 2.56224 2.95594 2.77001 3.16291C2.97821 3.37059 3.12944 3.82209 3.45729 4.14726C3.53572 4.2261 4.18782 4.52661 4.23763 4.5598C4.71331 4.94903 4.27483 5.36311 4.26475 5.40674C4.17677 5.90702 4.92642 6.29358 5.06409 6.4457C5.63782 7.06039 5.96693 7.68698 6.46609 8.24919C6.78958 8.61355 7.14935 8.44744 7.33525 8.73609C7.97634 9.72676 7.78057 10.3962 8.85695 11.1045C9.07672 11.2411 9.28461 10.7972 9.509 11.6945C9.5225 11.7503 9.64728 12.4563 10.0284 12.6564C10.0762 12.6813 10.1765 12.6079 10.2218 12.6535C10.5241 12.961 10.6107 13.2523 10.9266 13.6113C11.2346 13.9593 11.5972 14.3419 11.8694 14.7903C12.0321 15.0582 12.0834 15.5233 12.1273 15.6802C12.2481 16.1245 12.7406 16.3454 12.7419 16.6822C12.7416 17.0185 12.1899 16.7757 12.4984 17.4147C12.7738 17.2443 13.0754 17.0951 13.3613 16.9358C14.2231 18.1312 15.0946 19.482 15.9985 20.6628C16.1131 20.812 16.1364 20.5539 16.2629 20.7112C16.7968 21.376 17.1537 22.0536 17.7442 22.7485C18.21 23.2967 18.7903 23.7527 19.2701 24.3003C19.2444 24.8732 20.0021 25.6488 20.4639 26.2961C20.6247 26.5214 20.5395 26.5725 20.6304 26.7414C20.9806 27.3828 21.03 26.9156 21.1923 27.0397C21.8906 27.5747 21.3542 28.0886 22.0002 28.8763C22.034 28.9181 22.7541 29.1921 22.8305 29.2486C23.3178 29.6041 22.783 29.4091 22.9874 29.7125C23.3664 30.2731 23.5675 30.6749 24.1395 31.2015C24.3063 31.3542 24.8347 31.618 24.9628 32.0774C24.9797 32.1378 24.8585 32.1951 24.8818 32.2359C25.3128 32.9683 25.6453 32.7279 26.0576 33.0137C26.4723 33.3025 26.7221 34.051 26.7531 34.2164C26.8387 34.6514 26.4935 34.0429 26.4645 34.0399C26.1172 34.0047 26.4884 34.3898 26.7332 34.7188C26.4613 35.0198 26.8461 35.447 26.9886 35.059C27.0035 35.0159 26.7713 34.7938 26.7332 34.7188C27.2656 34.7454 27.7051 35.1975 27.8715 35.9712C27.9498 36.3338 27.5949 36.2238 28.2942 36.9439C28.6123 37.2711 28.7105 36.9587 29.027 37.2176C29.75 37.8095 30.3068 38.8623 30.9519 39.5512C31.1852 39.8002 31.0835 39.4498 31.2469 39.6165C31.6811 40.0585 31.953 40.5466 32.4068 40.9799C32.4481 41.0191 32.4768 40.8109 32.6057 40.9561C33.5754 42.0418 34.337 43.0591 35.3566 44.2029C35.852 44.7592 36.7939 45.6711 37.2963 46.2463C38.1633 47.2408 39.1104 48.5992 39.9227 49.3795C40.4538 49.891 40.4584 49.6644 40.7534 49.8194C41.3229 50.1173 41.7977 51.1543 41.8574 51.2993C41.8589 51.304 41.3927 50.8719 41.5684 51.1725C41.5827 51.4319 41.8519 51.2947 41.8574 51.2993C41.8957 51.3944 42.7521 52.3317 42.9496 52.4898C43.0569 52.5762 43.1109 52.4167 43.1648 52.4636C44.4431 53.5819 45.6639 54.7535 46.8401 56.0047C46.8596 56.0281 46.7096 56.116 46.7569 56.1694C47.4161 56.9191 48.0172 57.2144 48.6919 57.6921C49.3669 58.1696 49.8086 58.6424 49.9638 59.1833C50.4395 59.5807 51.0047 60.279 51.3287 60.6812C51.6528 61.0838 51.9259 60.8902 51.9633 60.9158C53.1371 61.7057 53.6025 62.3741 54.682 63.3607C55.1925 63.8288 56.259 64.6856 56.8492 65.1363C57.316 65.4933 57.5352 65.7766 57.9888 66.0898C58.0499 66.1319 58.0853 65.9724 58.1062 65.9824C58.6859 66.2365 58.2342 66.3239 58.2907 66.453C58.4957 66.9207 58.6364 67.1963 59.3092 67.6006C59.4647 67.6944 60.1907 67.6211 60.4625 67.7987C60.8159 68.0308 60.5775 68.0762 60.9509 68.3141C60.9827 68.3344 61.0466 68.2409 61.2568 68.4122C62.2439 69.2137 63.3152 70.1115 64.376 70.876C64.5208 70.9809 64.4423 70.7008 64.653 70.8495C65.6309 71.5397 66.7453 72.3363 67.6688 73.0667C67.8971 73.2479 67.6758 73.2493 67.707 73.3156C67.9014 73.7212 68.5401 73.7533 68.6181 73.7973C70.5236 74.8699 71.7543 75.9891 73.7498 76.9765C73.8601 77.0314 74.8369 77.1802 75.0501 77.6397C75.0646 77.6706 75.2741 78.1376 75.6894 78.1205C75.715 78.1192 75.5688 77.861 75.9475 78.0817C76.3248 78.3014 76.999 78.5333 77.4724 78.9653C77.6203 79.101 77.8969 79.5834 78.5215 79.6105C78.5648 79.6135 79.5936 79.4855 79.7165 79.9603C79.736 80.0377 79.521 80.3882 80.2229 80.4734C80.3574 80.4887 80.1783 80.3111 80.5139 80.3971C81.0378 80.5322 81.6444 80.9065 82.3103 80.978C82.4273 80.9907 82.9689 80.9096 83.2482 81.2383C83.2921 81.29 83.1384 81.3765 83.3208 81.4616C84.1756 81.8617 85.1843 82.1153 86.0828 82.4918C86.4028 82.6248 86.17 82.7826 86.4985 82.9426C86.8117 83.0955 87.4462 83.3309 87.8384 83.3488C87.858 83.3499 87.8771 83.3505 87.8954 83.3505C88.291 83.3505 87.9756 82.9092 88.5339 83.0236C90.9564 83.513 93.3031 84.1608 95.7551 84.5017C96.1174 84.5512 95.8321 84.3914 96.3663 84.4525C98.3366 84.6952 101.764 84.7672 103.489 85.0241C104.877 85.2397 103.127 85.3991 104.192 85.4856C104.708 85.5256 105.258 85.1104 105.38 85.0949C106.584 84.9393 107.429 85.0806 108.512 84.9586C108.735 84.9328 108.505 84.7831 108.695 84.7628C109.342 84.6917 110.031 84.7104 110.651 84.6398C110.929 84.6076 110.866 84.4875 111.123 84.4723C111.738 84.4335 112.284 84.4265 112.894 84.4715C112.95 84.4755 112.601 84.6749 113.055 84.6257C113.79 84.5452 114.718 84.5357 115.543 84.2874C115.788 84.213 115.753 83.9295 116.321 84.0381C116.44 84.0602 116.353 84.4249 116.929 84.026C117.027 83.9604 117.999 83.3823 118.557 83.5374C118.704 83.5788 119.103 83.7889 119.394 83.6857C119.433 83.6706 119.241 83.5521 119.485 83.4879C120.345 83.2641 121.262 83.0829 122.139 82.8303C122.373 82.7624 121.984 82.6893 122.333 82.5929C123.294 82.3278 124.51 82.063 125.466 81.8565C125.819 81.7808 125.613 81.973 125.642 81.9801C126.111 82.0953 126.269 81.7238 126.398 81.6687C127.205 81.3289 127.882 81.2856 128.639 81.0159C128.848 80.9417 128.654 80.8434 128.693 80.8178C129.091 80.5593 128.845 80.9169 129.13 80.8605C129.93 80.7028 130.789 80.4147 131.562 80.137C131.846 80.0347 131.469 79.9766 131.724 79.8866C133.231 79.3503 134.8 78.8046 136.296 78.3377C136.578 78.25 136.453 78.4414 136.521 78.4482C136.995 78.4974 137.468 77.9985 137.59 77.9202C138.148 77.564 138.425 77.5805 138.948 77.3447C141.503 76.1944 144.685 74.8573 147.1 73.7427C150.225 72.3012 152.665 71.1712 155.546 69.5406C155.729 69.437 155.457 69.3836 155.613 69.2923C157.618 68.1285 159.661 67.0191 161.615 65.7733C161.775 65.6714 161.453 65.6688 161.708 65.5003C162.232 65.1516 162.928 64.7333 163.498 64.4417C163.777 64.2987 163.498 64.6435 163.777 64.4969C164.426 64.1558 165.092 63.7492 165.701 63.3264C165.961 63.1462 165.467 63.2571 165.81 63.0343C168.203 61.477 170.486 59.9066 172.937 58.4649C173.104 58.3665 173.442 58.5601 173.753 58.2581C173.723 58.1599 173.655 58.067 173.606 57.9737C176.934 55.5557 180.299 53.1911 183.541 50.6543C183.681 50.5451 183.325 50.5883 183.594 50.3765C185.113 49.1783 186.592 47.911 188.2 46.8119C188.369 46.6941 188.502 47.0116 188.929 46.5888C189.007 46.5125 189.654 45.9097 189.775 45.7135C189.791 45.6859 189.572 45.6703 189.78 45.488C191.019 44.4057 192.333 43.3106 193.637 42.2735C193.838 42.1151 193.744 42.4174 193.887 42.306C194.946 41.4771 195.98 40.3644 196.961 39.646C197.704 39.0823 197.64 39.5296 198.129 39.4475C198.141 39.4634 198.315 39.3126 198.437 39.2317C198.568 39.1432 198.676 39.0962 198.74 39.1468C199.066 39.3963 199.218 39.8681 199.584 40.1153C199.639 40.1271 199.686 40.0801 199.872 39.9177C199.927 39.8745 199.933 39.8838 199.951 39.9C199.962 39.9224 200.015 39.9203 199.975 40.0387C199.971 40.0479 199.948 40.081 199.879 40.1634C199.844 40.2118 199.825 40.2486 199.786 40.3071C199.715 40.4178 199.609 40.5726 199.578 40.6547C199.535 40.7692 199.795 40.7476 199.675 40.9564C199.59 41.1305 199.387 41.1348 199.211 41.4098C199.125 41.5472 199.135 41.629 199.111 41.7335C199.091 41.8343 199.004 41.987 198.824 42.1708ZM52.7974 62.4811C53.0444 62.9127 53.4785 62.5302 53.0075 62.2933C52.9843 62.2823 52.7844 62.4592 52.7974 62.4811ZM14.7174 19.696C14.8988 20.364 15.4378 20.4621 15.3406 20.0052C15.2306 19.5312 14.6636 19.4951 14.7174 19.696ZM10.7659 14.6125C11.0194 15.3057 11.7458 14.9201 11.1669 14.399C11.1336 14.3686 10.7512 14.5721 10.7659 14.6125ZM196.666 40.929C196.678 40.9281 196.966 40.6713 196.966 40.6616C196.991 40.389 196.418 40.9001 196.666 40.929ZM6.90485 9.50958C6.93903 9.75177 7.4144 10.2101 7.36674 9.9026C7.32715 9.6537 6.86075 9.20635 6.90485 9.50958ZM72.1674 77.7748C72.1696 77.7862 72.4064 77.934 72.426 77.8893C72.4883 77.7454 72.1318 77.5869 72.1674 77.7748ZM0.834366 0.510783C1.66648 1.85387 1.66242 3.06705 0.746059 1.52867C0.570212 1.23376 1.33592 2.04025 1.14209 1.63219C0.962061 1.25529 0.738812 1.05421 0.547577 0.87527C0.421206 0.738192 0.293055 0.591012 0.207764 0.469133C0.164232 0.406822 0.129006 0.347106 0.104616 0.289702C0.0621249 0.204082 -0.0213698 0.0385729 0.00507127 0.0272708C0.0149557 0.0235117 0.033537 -0.00836957 0.0913536 0.00210058C0.1361 -0.00784418 0.319721 0.180407 0.382722 0.181471C0.560969 0.26586 0.805027 0.46152 0.837047 0.513212C0.836157 0.512408 0.835255 0.511585 0.834366 0.510783ZM52.54 63.1767C52.5419 63.1888 52.8205 63.4468 52.8323 63.4472C53.1069 63.4476 52.5463 62.9283 52.54 63.1767ZM86.7162 84.6085C86.7279 84.6247 87.1923 84.7661 87.4461 84.8315C87.5374 84.8553 87.6021 84.8703 87.6105 84.8685C87.799 84.8072 87.6965 84.7058 87.5025 84.6186C87.1631 84.4656 86.5305 84.3469 86.7162 84.6085ZM34.1522 45.2259C33.7365 45.0366 33.3875 44.6772 33.3393 44.2757C33.6052 44.5937 33.8819 44.9069 34.1522 45.2259ZM159.076 40.2991C159.299 40.232 159.6 40.2629 159.831 40.319C159.903 40.3364 159.875 40.4406 159.925 40.4572C160.024 40.4894 160.109 40.4329 160.207 40.4728C160.239 40.4865 160.212 40.6502 160.246 40.6609C160.431 40.7184 160.598 40.6646 160.782 40.685C161.691 40.7858 162.576 40.7794 163.488 40.784C163.789 40.7854 164.163 40.9038 164.467 40.8166C164.503 40.8063 164.471 40.6667 164.477 40.6546C164.571 40.4684 164.556 40.756 164.63 40.7885C164.92 40.9169 165.231 40.9064 165.495 40.8316C165.607 40.7994 165.471 40.5277 165.598 40.6764C165.607 40.6864 165.59 40.8385 165.622 40.8521C165.696 40.8827 165.828 40.8457 165.884 40.8534C165.992 40.869 166.01 40.8661 166.11 40.8603C166.247 40.8535 166.416 40.9157 166.561 40.8706C166.591 40.8605 166.538 40.71 166.586 40.6801C166.634 40.6502 166.768 40.6531 166.815 40.686C166.863 40.7188 166.853 40.841 166.863 40.8681C166.946 41.0968 167.075 40.7616 167.094 40.7521C167.443 40.5885 167.766 40.7495 168.103 40.7234C168.36 40.7032 168.629 40.6215 168.874 40.6114C169.165 40.5999 169.418 40.6645 169.699 40.6288C169.729 40.6252 169.68 40.4472 169.716 40.4425C170.102 40.3922 170.487 40.3828 170.881 40.4756C170.921 40.485 170.883 40.6474 170.923 40.6663C171.169 40.7788 171.567 41.0636 171.655 40.3624C171.817 40.3773 172.013 40.3904 172.167 40.5188C172.266 40.6014 172.189 40.781 172.297 40.6987C172.321 40.6803 172.277 40.5315 172.314 40.5154C172.471 40.4478 172.651 40.4836 172.805 40.3933C172.836 40.3746 172.817 40.2397 172.824 40.2146C172.887 40.011 173.04 40.3281 173.07 40.3497C173.297 40.5106 173.448 40.4291 173.648 40.4184C173.694 40.4159 173.626 40.2379 173.67 40.2291C173.898 40.1855 174.138 40.1831 174.37 40.2468C174.422 40.2614 174.387 40.42 174.413 40.4349C174.524 40.4988 174.525 40.204 174.631 40.2597C174.654 40.271 174.652 40.4047 174.657 40.419C174.735 40.6434 174.764 40.3149 174.779 40.3066C174.97 40.1936 175.123 40.5227 175.311 40.4602C175.334 40.4524 175.269 40.2883 175.333 40.2765C175.76 40.1976 176.219 40.2093 176.655 40.3114C176.722 40.3271 176.685 40.4569 176.69 40.4722C176.776 40.7102 176.795 40.381 176.816 40.3671C176.98 40.2659 177.16 40.5271 177.246 40.1303C177.977 40.2103 178.679 39.938 179.42 40.2315C179.43 40.2348 179.426 40.3965 179.444 40.4025C179.67 40.476 179.609 40.2298 179.73 39.9139C179.761 39.8345 179.899 40.1944 179.911 40.2206C179.955 40.3174 179.936 40.5589 179.949 40.5773C180.059 40.721 179.983 39.9328 180.117 39.9224C180.121 39.9234 180.115 40.0701 180.127 40.0837C180.165 40.1264 180.195 40.066 180.233 40.1135C180.32 40.2233 180.377 40.6048 180.479 40.3725C180.492 40.3424 180.435 39.8964 180.556 39.9085C180.604 39.9137 180.814 39.8901 180.875 39.9146C180.936 39.9392 180.906 40.0865 180.911 40.0925C181.084 40.2713 181.03 40.3549 181.131 40.6314C181.231 40.9068 181.159 40.2372 181.185 40.1598C181.212 40.0827 181.34 40.2313 181.373 40.2839C181.406 40.3365 181.377 40.4309 181.405 40.4599C181.589 40.6496 181.453 40.1211 181.501 40.0104C181.613 39.7482 181.752 40.2383 181.876 40.278C181.909 40.2887 181.874 40.1773 181.902 40.1646C182.013 40.1154 182.094 40.2655 182.213 40.1133C182.233 40.0884 182.315 39.7812 182.4 39.9957C182.412 40.0266 182.394 40.1527 182.445 40.1768C182.521 40.213 182.654 40.2302 182.729 40.1828C182.784 40.1478 182.702 39.9484 182.78 40.0064C182.814 40.0323 182.764 40.1564 182.828 40.1951C182.891 40.2338 183.045 40.2168 183.104 40.2083C183.162 40.1996 183.118 40.047 183.122 40.0362C183.146 39.9742 183.253 39.8909 183.263 39.8903C183.763 39.8334 184.245 40.0597 184.727 39.9362C184.765 39.9267 184.727 39.7652 184.733 39.762C184.859 39.6836 184.788 40.1262 184.891 40.2647C184.853 39.9339 184.911 39.9899 185.001 39.9465C185.044 39.9253 185.01 39.7987 185.013 39.7852C185.064 39.5851 185.129 39.8337 185.145 39.8843C185.203 40.0707 185.234 39.843 185.273 39.9675C185.313 40.0911 185.258 40.2828 185.347 40.2737C185.362 40.153 185.273 39.8476 185.337 39.7922C185.576 39.5827 186.068 39.7904 186.275 39.8002C186.48 39.81 186.544 39.7831 186.666 39.8171C186.887 39.8784 186.791 39.6541 186.916 39.5386C187.041 39.4231 187.019 39.9946 187.048 40.115C187.076 40.2353 187.087 40.1084 187.115 40.1736C187.144 40.2387 187.099 40.3254 187.156 40.3463C187.213 40.3673 187.347 40.1393 187.357 40.0104C187.378 39.7375 187.289 39.4594 187.442 39.5479C187.45 39.5532 187.434 39.7042 187.468 39.7169C187.731 39.8123 187.996 39.7994 188.258 39.8816C188.294 39.8931 188.275 40.0612 188.296 40.0698C188.516 40.1598 188.419 39.886 188.511 39.5668C188.517 39.9819 188.6 40.2298 188.761 40.2201C188.858 40.2144 188.827 40.0352 188.88 39.9033C188.896 39.8635 188.974 39.9822 188.98 39.8964C189 39.616 188.912 39.3103 189.087 39.4214C189.095 39.4267 189.083 39.5803 189.109 39.5876C189.276 39.6355 189.273 39.3439 189.446 39.2954C189.582 39.2574 189.84 39.4158 189.999 39.4327C190.031 39.8975 190.171 39.7799 190.206 39.4551C190.309 39.4605 190.418 39.4341 190.519 39.4709C190.554 39.4834 190.542 39.6196 190.547 39.6338C190.63 39.8568 190.651 39.5419 190.672 39.528C190.901 39.3912 191.112 39.6127 191.322 39.3647C191.329 39.3558 191.318 39.0321 191.397 39.2631C191.402 39.2791 191.338 39.4316 191.445 39.4348C191.553 39.4381 191.768 39.5958 191.905 39.4351C191.938 39.3964 192.009 39.1276 192.097 39.3267C192.109 39.3537 192.105 39.4471 192.123 39.4975C192.181 39.6582 192.181 39.3302 192.255 39.6032C192.329 39.8762 192.456 40.0753 192.591 39.8728C192.595 39.8669 192.611 39.6058 192.658 39.6063C192.734 39.6073 192.845 39.6531 192.923 39.6455C192.96 39.6417 192.924 39.4831 192.93 39.4796C193.176 39.3706 193.366 39.5001 193.642 39.5417C193.692 39.5496 193.818 39.32 193.927 39.4857C194.047 39.6672 193.998 40.4634 194.226 40.2573C194.318 40.1748 194.366 39.1657 194.581 39.6704C194.911 39.5162 195.246 39.7575 195.574 39.5484C195.589 39.5391 195.616 39.2564 195.652 39.2575C195.706 39.2596 195.746 39.3878 195.785 39.3934C195.948 39.4206 196.086 39.2979 196.242 39.3035C196.301 39.3054 196.291 39.4418 196.361 39.444C196.432 39.4461 196.465 39.2651 196.566 39.3436C196.643 39.4036 196.742 39.7611 196.84 39.7962C196.817 39.4379 196.883 39.4403 196.991 39.3371C197.012 39.317 196.979 39.1943 196.988 39.1784C197.026 39.1109 197.074 39.2111 197.109 39.1381C197.118 39.1206 197.109 38.9983 197.116 38.9771C197.171 38.7918 197.305 39.0582 197.329 39.1046C197.417 39.2808 197.44 39.1191 197.503 39.1864C197.565 39.2537 197.487 39.3497 197.557 39.388C197.702 39.4674 197.879 39.4342 198.02 39.4291C198.076 39.4264 198.026 39.2661 198.033 39.2619C198.146 39.2117 198.277 39.3764 198.317 39.0465C198.461 39.8809 198.38 38.9596 198.559 39.1153C198.573 39.1279 198.62 39.5241 198.574 39.5863C198.528 39.6484 198.443 39.5299 198.38 39.6261C198.365 39.6487 198.299 40.0283 198.288 40.0519C198.2 40.2359 198.141 39.643 198.133 39.6108C198.046 39.2633 197.961 39.6733 197.933 39.7033C197.803 39.8409 197.679 39.7663 197.569 39.8658C197.497 39.9302 197.519 40.3198 197.459 40.3124C197.257 40.2881 197.147 39.7506 196.995 40.2354C196.963 40.3388 197.035 40.761 196.866 40.4375C196.855 40.4171 196.725 40.1193 196.678 40.3175C196.672 40.3425 196.682 40.4664 196.672 40.4776C196.609 40.5501 196.556 40.4548 196.485 40.5078C196.414 40.5607 196.33 40.638 196.241 40.6024C196.188 40.5811 196.105 40.3552 196.076 40.3006C195.994 40.143 195.94 40.4156 195.882 40.2217C195.824 40.0268 195.886 39.7194 195.762 39.5999C195.782 39.9222 195.798 40.2534 195.816 40.5777C195.566 40.5853 195.313 40.4997 195.064 40.5329C195.033 40.5373 195.078 40.708 195.045 40.7172C194.907 40.7553 194.775 40.6412 194.634 40.7013C194.524 40.7486 194.415 40.9412 194.301 40.9963C194.201 40.6333 194.036 40.7716 193.907 40.7475C193.861 40.7392 193.857 40.6406 193.823 40.6109C193.695 40.5012 193.775 40.8225 193.746 40.8763C193.623 41.1055 193.555 40.3695 193.391 40.4002C193.382 40.4016 193.305 40.8025 193.292 40.8281C193.211 40.9947 193.266 40.6926 193.206 40.668C193.095 40.6231 193.013 40.5349 192.896 40.6594C192.862 40.6963 192.793 40.9478 192.708 40.7638C192.696 40.7397 192.692 40.6095 192.684 40.6024C192.538 40.486 192.565 40.8942 192.498 41.0383C192.43 41.1824 192.289 40.9098 192.258 40.8305C192.178 40.6254 192.3 40.7371 192.302 40.7162C192.324 40.4679 192.24 40.5168 192.171 40.5011C192.131 40.1018 192.039 40.1329 192.1 40.4865C192.107 40.5251 192.156 40.4839 192.171 40.5011C192.142 40.898 192.043 40.9561 191.901 40.598C191.835 40.4301 191.87 40.2259 191.714 40.3114C191.643 40.3501 191.692 40.6234 191.633 40.7034C191.498 40.8859 191.286 40.6436 191.137 40.6956C191.083 40.7145 191.148 40.8612 191.111 40.8793C191.014 40.9278 190.917 40.8214 190.82 40.887C190.812 40.8931 190.846 41.0493 190.815 41.0537C190.578 41.09 190.363 41.0046 190.115 41.0206C189.995 41.0284 189.787 41.1317 189.661 41.1236C189.444 41.1106 189.161 40.9011 188.981 40.9708C188.864 41.0156 188.902 41.1715 188.859 41.2829C188.776 41.4989 188.572 41.1388 188.544 41.0827C188.543 41.0809 188.643 41.0358 188.582 40.959C188.537 40.7926 188.545 41.0819 188.544 41.0827C188.525 41.0466 188.316 41.0264 188.277 41.0596C188.256 41.0778 188.28 41.2264 188.269 41.2331C188.003 41.3878 187.73 41.4468 187.445 41.398C187.44 41.3954 187.434 41.2275 187.422 41.2234C187.255 41.1613 187.166 41.3738 187.042 41.5054C186.918 41.637 186.809 41.6043 186.708 41.3231C186.61 41.3669 186.456 41.2509 186.367 41.1802C186.277 41.1094 186.291 41.436 186.284 41.443C186.071 41.6663 185.925 41.4899 185.686 41.4789C185.572 41.473 185.352 41.5372 185.233 41.582C185.139 41.618 185.075 41.5461 184.99 41.6016C184.978 41.6091 185.001 41.7532 184.998 41.759C184.912 41.94 184.933 41.5819 184.908 41.5202C184.816 41.2956 184.761 41.1764 184.642 41.2943C184.615 41.3214 184.568 41.8382 184.517 41.8721C184.45 41.9152 184.463 41.7303 184.393 41.7801C184.388 41.7842 184.397 41.897 184.352 41.8954C184.142 41.8896 183.91 41.8411 183.695 41.8688C183.666 41.8721 183.717 42.0483 183.675 42.056C183.476 42.0924 183.256 42.1025 183.054 42.0334C183.005 42.0159 183.025 41.8883 183.012 41.8518C182.931 41.6315 182.865 41.9656 182.851 41.9729C182.505 42.1572 182.209 41.8819 181.856 42.0504C181.837 42.0602 181.711 42.4225 181.62 42.1268C181.614 42.1072 181.523 41.8045 181.479 42.0195C181.477 42.0329 181.531 42.1882 181.456 42.1776C181.382 42.167 181.272 42.2817 181.158 42.1153C181.122 42.0628 181.023 41.7615 180.947 42.0135C180.942 42.031 180.837 42.5955 180.756 42.2177C180.742 42.1555 180.721 41.7508 180.623 41.9665C180.604 42.0083 180.65 42.0955 180.598 42.1561C180.517 42.2494 180.392 42.15 180.299 42.3381C180.282 42.3714 180.223 42.6517 180.143 42.4484C180.131 42.4166 180.14 42.2802 180.105 42.2677C179.938 42.2075 179.777 42.3105 179.606 42.2295C179.546 42.2011 179.559 41.9808 179.494 41.9269C179.429 41.8731 179.304 41.8261 179.248 41.9305C179.193 42.035 179.288 42.3773 179.195 42.4123C178.793 42.5642 178.371 42.3912 177.958 42.3925C177.897 42.3926 177.956 42.5132 177.867 42.5223C177.537 42.5566 176.974 42.7165 176.667 42.474C176.421 42.2798 176.699 42.0967 176.516 42.0239C176.428 41.9892 176.367 42.4002 176.348 42.4145C176.158 42.5589 176.005 42.3904 175.829 42.459C175.793 42.4732 175.842 42.6342 175.811 42.6445C175.705 42.6811 175.586 42.6166 175.483 42.6378C175.437 42.6476 175.455 42.7721 175.412 42.7656C175.308 42.7517 175.214 42.706 175.106 42.5963C175.096 42.5863 175.145 42.4261 175.07 42.426C174.947 42.4263 174.786 42.3222 174.655 42.4522C174.616 42.4913 174.636 42.7773 174.531 42.5867C174.509 42.5469 174.507 42.2018 174.425 42.5063C174.412 42.5569 174.267 42.9702 174.161 42.7189C174.133 42.6527 174.054 42.3762 174.007 42.4242C174.001 42.4317 174.04 42.5832 173.999 42.6013C173.857 42.6625 173.702 42.6578 173.555 42.7173C173.516 42.7335 173.588 42.8878 173.529 42.9069C173.367 42.9595 173.159 42.9346 172.994 42.8971C172.933 42.8829 172.964 42.7482 172.959 42.7342C172.872 42.5065 172.855 42.8241 172.833 42.8442C172.698 42.9648 172.578 42.8254 172.448 42.8745C172.413 42.8876 172.45 43.0356 172.444 43.0495C172.378 43.1859 172.414 42.9123 172.364 42.8863C172.224 42.8123 172.076 42.8357 171.943 42.8651C171.894 42.8761 171.963 43.0457 171.918 43.0536C171.657 43.1035 171.382 43.1076 171.118 43.0312C171.068 43.0165 171.088 42.8804 171.076 42.8505C170.99 42.6419 170.91 42.9414 170.889 42.971C170.792 43.106 170.742 42.9907 170.649 43.0199C170.197 43.1648 169.624 43.1294 169.186 43.1139C168.615 43.0944 168.167 43.0003 167.63 43.0742C167.595 43.0787 167.644 43.2542 167.614 43.2604C167.236 43.3323 166.855 43.2911 166.476 43.3715C166.445 43.3778 166.503 43.5432 166.454 43.559C166.352 43.5925 166.221 43.5932 166.112 43.5472C166.059 43.5251 166.117 43.3751 166.064 43.3558C165.94 43.3105 165.811 43.3082 165.691 43.3445C165.639 43.3604 165.731 43.5271 165.664 43.5342C165.203 43.5863 164.751 43.6505 164.267 43.4622C164.234 43.4493 164.179 43.1005 164.116 43.1729C164.119 43.2707 164.128 43.3853 164.133 43.4895C163.465 43.5966 162.79 43.5254 162.114 43.5577C162.085 43.5591 162.148 43.7413 162.093 43.7449C161.774 43.7663 161.469 43.8413 161.129 43.6812C161.095 43.6655 161.087 43.3372 160.995 43.3939C160.979 43.4042 160.839 43.4587 160.807 43.5325C160.803 43.5436 160.84 43.6943 160.795 43.7022C160.527 43.7458 160.243 43.7323 159.968 43.6593C159.923 43.6472 159.957 43.4812 159.925 43.4711C159.7 43.4014 159.471 43.543 159.251 43.4113C159.103 43.3225 159.134 43.0375 159.038 42.7664C159.025 42.7282 158.938 42.7286 158.921 42.5679C158.879 42.164 158.887 41.7176 158.838 41.2875C158.827 41.1948 158.718 41.3037 158.77 41.0739C158.774 41.0585 158.852 40.9776 158.867 40.8999C158.878 40.8461 158.839 40.6844 158.864 40.6147C158.888 40.5451 158.931 40.6799 158.973 40.597C159.016 40.5131 158.981 40.3285 159.076 40.2991ZM185.966 40.8642C185.877 40.7137 185.909 41.2873 185.982 41.144C185.985 41.1363 185.97 40.8716 185.966 40.8642ZM195.281 40.0676C195.162 39.8225 195.121 40.1992 195.207 40.389C195.292 40.5785 195.318 40.1418 195.281 40.0676ZM196.312 39.804C196.179 39.6137 196.222 40.4273 196.336 40.2536C196.342 40.2438 196.32 39.815 196.312 39.804ZM159.377 42.6615C159.376 42.654 159.313 42.6513 159.312 42.6589C159.293 42.8434 159.418 42.8486 159.377 42.6615ZM197.333 39.5246C197.288 39.4176 197.192 39.5524 197.248 39.6856C197.293 39.7927 197.389 39.6579 197.333 39.5246ZM181.9 40.5574C181.898 40.5489 181.853 40.5446 181.858 40.5928C181.872 40.748 181.931 40.6994 181.9 40.5574ZM199.094 39.3818C198.832 39.371 198.623 38.712 198.912 38.7662C198.965 38.776 198.818 38.9886 198.888 39.0441C199.016 39.1453 199.063 38.718 199.202 38.9345C199.227 38.9741 199.109 39.384 199.094 39.3828C199.094 39.3825 199.094 39.3822 199.094 39.3818ZM185.869 40.1796C185.867 40.1721 185.805 40.1696 185.804 40.1772C185.784 40.3616 185.91 40.3668 185.869 40.1796ZM179.267 40.4006C179.262 40.3848 179.117 40.3805 179.114 40.3958C179.062 40.6988 179.354 40.7082 179.267 40.4006ZM190.002 39.4449C190.056 39.2569 190.135 39.2292 190.206 39.4549C190.138 39.4478 190.07 39.4511 190.002 39.4449ZM180.195 76.2519C180.247 76.0168 180.424 75.7581 180.588 75.5751C180.639 75.5177 180.717 75.5938 180.756 75.5561C180.833 75.4822 180.826 75.3773 180.91 75.3076C180.938 75.2847 181.068 75.3886 181.094 75.363C181.237 75.2227 181.273 75.0448 181.383 74.8868C181.924 74.1089 182.36 73.3003 182.819 72.4723C182.97 72.1992 183.26 71.9158 183.335 71.5969C183.344 71.5596 183.206 71.5211 183.198 71.5098C183.082 71.3337 183.327 71.4863 183.392 71.4356C183.649 71.2339 183.795 70.9457 183.861 70.669C183.889 70.5511 183.584 70.5427 183.777 70.4994C183.79 70.4963 183.914 70.5862 183.942 70.5632C184.006 70.5109 184.04 70.3723 184.074 70.3251C184.142 70.2346 184.148 70.2173 184.193 70.1231C184.255 69.9948 184.394 69.8714 184.426 69.718C184.433 69.6851 184.275 69.6604 184.273 69.6021C184.27 69.5438 184.34 69.4237 184.392 69.3964C184.444 69.3692 184.546 69.4375 184.575 69.4416C184.816 69.4773 184.587 69.1973 184.589 69.1752C184.62 68.7778 184.921 68.5624 185.067 68.2424C185.177 67.9993 185.24 67.7144 185.353 67.4869C185.489 67.2161 185.671 67.0175 185.78 66.7442C185.792 66.7154 185.612 66.6732 185.626 66.6379C185.774 66.2631 185.958 65.9077 186.236 65.594C186.264 65.5626 186.387 65.6758 186.423 65.6483C186.644 65.479 187.092 65.2556 186.522 64.8351C186.616 64.6949 186.726 64.5226 186.914 64.445C187.036 64.395 187.155 64.5518 187.137 64.4138C187.133 64.3827 186.98 64.3512 186.985 64.3094C187.004 64.1335 187.125 63.987 187.123 63.8032C187.122 63.7657 186.995 63.7176 186.976 63.6987C186.829 63.5431 187.183 63.5573 187.217 63.5406C187.471 63.412 187.475 63.2352 187.565 63.0485C187.586 63.0052 187.396 62.981 187.411 62.9366C187.486 62.7074 187.604 62.4877 187.775 62.3076C187.814 62.2677 187.935 62.376 187.961 62.3603C188.072 62.29 187.815 62.1458 187.917 62.076C187.938 62.0612 188.054 62.1279 188.069 62.1303C188.304 62.1678 188.031 61.9824 188.032 61.9646C188.028 61.7356 188.392 61.7564 188.431 61.5546C188.436 61.5303 188.26 61.5094 188.282 61.4454C188.425 61.0187 188.664 60.6072 188.971 60.26C189.019 60.2059 189.113 60.3033 189.129 60.3058C189.38 60.3428 189.102 60.1655 189.1 60.1399C189.093 59.9419 189.411 59.9051 189.108 59.6338C189.542 59.007 189.654 58.2365 190.28 57.704C190.288 57.6971 190.427 57.7794 190.442 57.7652C190.618 57.5959 190.373 57.5318 190.157 57.2678C190.103 57.2014 190.487 57.2499 190.516 57.2519C190.622 57.2595 190.824 57.3941 190.846 57.3908C191.027 57.3601 190.3 57.0465 190.357 56.92C190.36 56.9166 190.485 56.9937 190.504 56.9891C190.56 56.975 190.522 56.9183 190.583 56.9069C190.722 56.8813 191.084 57.0148 190.932 56.8091C190.912 56.7827 190.493 56.618 190.564 56.5139C190.593 56.4726 190.677 56.2703 190.729 56.2266C190.78 56.1829 190.895 56.2813 190.902 56.2799C191.145 56.2092 191.191 56.2991 191.483 56.3416C191.774 56.3836 191.152 56.1248 191.098 56.0629C191.044 56.0011 191.238 55.9565 191.3 55.9523C191.362 55.948 191.431 56.02 191.47 56.0088C191.727 55.9337 191.198 55.8 191.125 55.7031C190.951 55.4741 191.449 55.585 191.545 55.4919C191.572 55.4667 191.457 55.4446 191.459 55.4128C191.472 55.2877 191.643 55.2873 191.57 55.1049C191.558 55.0751 191.33 54.8509 191.56 54.8779C191.593 54.882 191.694 54.9596 191.741 54.9251C191.81 54.8735 191.892 54.7607 191.888 54.6694C191.885 54.6019 191.67 54.5794 191.759 54.537C191.799 54.5183 191.882 54.6248 191.948 54.5853C192.013 54.5462 192.075 54.3979 192.097 54.3405C192.118 54.2833 191.963 54.2491 191.956 54.2402C191.913 54.1881 191.894 54.0504 191.898 54.0411C192.098 53.5583 192.536 53.2293 192.669 52.7309C192.679 52.6918 192.519 52.6479 192.519 52.6412C192.513 52.4885 192.865 52.7675 193.037 52.7414C192.729 52.6157 192.807 52.5895 192.814 52.4868C192.817 52.4372 192.689 52.4067 192.679 52.3974C192.53 52.2535 192.779 52.315 192.832 52.3253C193.024 52.3629 192.84 52.2244 192.968 52.2491C193.096 52.2733 193.236 52.4159 193.273 52.3309C193.175 52.2579 192.863 52.1909 192.847 52.1062C192.783 51.7866 193.21 51.4393 193.321 51.2565C193.432 51.0742 193.441 51.0027 193.531 50.9082C193.695 50.7375 193.451 50.716 193.412 50.546C193.374 50.3756 193.863 50.6732 193.982 50.7057C194.101 50.7386 193.996 50.6669 194.067 50.6726C194.138 50.6784 194.192 50.7608 194.239 50.7192C194.285 50.6776 194.153 50.445 194.045 50.3735C193.817 50.2221 193.529 50.1682 193.683 50.072C193.692 50.0665 193.816 50.1543 193.843 50.1302C194.058 49.9371 194.179 49.6897 194.381 49.4913C194.409 49.4642 194.547 49.5628 194.565 49.5478C194.753 49.3914 194.466 49.3466 194.233 49.1074C194.598 49.3042 194.857 49.3487 194.928 49.1975C194.972 49.1066 194.8 49.0472 194.711 48.9351C194.684 48.9013 194.827 48.8882 194.755 48.8411C194.519 48.6868 194.208 48.6185 194.392 48.513C194.401 48.5086 194.529 48.5938 194.549 48.5738C194.674 48.4451 194.418 48.3058 194.461 48.1249C194.496 47.9831 194.763 47.8251 194.857 47.6887C195.279 47.8854 195.246 47.7009 194.98 47.5106C195.036 47.4198 195.067 47.3082 195.15 47.2336C195.178 47.2079 195.291 47.285 195.307 47.287C195.543 47.32 195.278 47.1483 195.276 47.1225C195.271 46.8477 195.57 46.7626 195.457 46.4514C195.453 46.4403 195.165 46.2936 195.406 46.3342C195.422 46.3373 195.524 46.4694 195.58 46.3731C195.637 46.2767 195.882 46.158 195.81 45.9553C195.792 45.9064 195.593 45.7113 195.811 45.7275C195.84 45.7299 195.92 45.7785 195.973 45.7867C196.142 45.8122 195.856 45.6529 196.131 45.7179C196.407 45.783 196.644 45.7646 196.535 45.5433C196.532 45.5365 196.311 45.3953 196.335 45.3524C196.374 45.2842 196.469 45.2057 196.501 45.1307C196.517 45.0948 196.36 45.0507 196.36 45.0433C196.387 44.7669 196.595 44.6564 196.769 44.4263C196.801 44.3842 196.663 44.1582 196.862 44.1394C197.081 44.1186 197.753 44.5494 197.686 44.2418C197.66 44.1181 196.801 43.5845 197.35 43.6341C197.38 43.2582 197.758 43.0706 197.738 42.671C197.738 42.6531 197.504 42.4909 197.523 42.4583C197.552 42.4101 197.684 42.4366 197.708 42.4039C197.813 42.2685 197.775 42.0831 197.857 41.944C197.889 41.8911 198.003 41.9667 198.04 41.9035C198.077 41.8404 197.935 41.7223 198.054 41.6682C198.145 41.6277 198.507 41.7111 198.587 41.6388C198.262 41.4862 198.297 41.4275 198.26 41.2783C198.253 41.2495 198.129 41.2202 198.12 41.204C198.08 41.1366 198.192 41.142 198.145 41.0743C198.134 41.0579 198.023 41.0065 198.008 40.9902C197.873 40.85 198.173 40.857 198.225 40.8585C198.424 40.8635 198.294 40.7642 198.384 40.7397C198.474 40.7153 198.518 40.8337 198.587 40.7885C198.729 40.6947 198.788 40.5178 198.854 40.3869C198.88 40.3343 198.714 40.3026 198.714 40.2935C198.727 40.1663 198.936 40.1274 198.667 39.931C199.469 40.205 198.623 39.8308 198.848 39.7437C198.866 39.737 199.236 39.8868 199.268 39.9587C199.299 40.0305 199.153 40.0508 199.206 40.1546C199.218 40.1792 199.517 40.4238 199.532 40.4454C199.649 40.6145 199.101 40.3806 199.069 40.372C198.722 40.2827 199.038 40.5592 199.05 40.5996C199.106 40.7842 198.979 40.8613 199.011 41.0092C199.031 41.1057 199.383 41.2748 199.346 41.3264C199.225 41.4981 198.7 41.3376 199.048 41.7109C199.122 41.7907 199.527 41.9301 199.16 41.927C199.137 41.9267 198.812 41.9004 198.962 42.0394C198.98 42.0569 199.094 42.1083 199.099 42.1223C199.131 42.2152 199.021 42.2173 199.032 42.3076C199.043 42.398 199.068 42.5122 198.993 42.5754C198.948 42.6135 198.709 42.5796 198.646 42.5794C198.468 42.5772 198.679 42.7589 198.481 42.7174C198.281 42.6759 198.043 42.4703 197.877 42.5245C198.169 42.6626 198.467 42.8095 198.759 42.9508C198.641 43.1819 198.44 43.3705 198.345 43.6131C198.333 43.6433 198.505 43.6854 198.497 43.7196C198.461 43.8637 198.296 43.9282 198.278 44.0863C198.265 44.2089 198.378 44.402 198.37 44.5326C198.002 44.4472 198.041 44.6645 197.956 44.7705C197.926 44.8077 197.837 44.7639 197.794 44.7805C197.634 44.8438 197.956 44.9266 197.988 44.9789C198.127 45.2027 197.45 44.907 197.395 45.0711C197.392 45.0796 197.704 45.3446 197.72 45.3688C197.825 45.5239 197.588 45.3265 197.536 45.3699C197.442 45.4491 197.324 45.4804 197.375 45.6472C197.39 45.6961 197.575 45.8812 197.372 45.8696C197.345 45.8682 197.229 45.8092 197.219 45.8131C197.044 45.8894 197.415 46.0627 197.507 46.194C197.6 46.3253 197.291 46.3218 197.206 46.3112C196.987 46.2843 197.145 46.2273 197.128 46.2155C196.922 46.0747 196.923 46.1754 196.875 46.2302C196.506 46.0728 196.487 46.1715 196.827 46.2877C196.864 46.3003 196.852 46.2354 196.875 46.2302C197.207 46.4494 197.209 46.5679 196.825 46.5229C196.645 46.5017 196.484 46.3705 196.481 46.5542C196.479 46.6375 196.743 46.7254 196.783 46.8181C196.876 47.0296 196.558 47.1047 196.529 47.2661C196.518 47.3246 196.679 47.3364 196.677 47.3786C196.671 47.4907 196.529 47.5275 196.538 47.6472C196.539 47.6581 196.693 47.7027 196.681 47.7332C196.595 47.9661 196.413 48.1201 196.304 48.3541C196.25 48.4671 196.237 48.7065 196.167 48.8169C196.047 49.0087 195.723 49.164 195.695 49.3615C195.675 49.49 195.831 49.5308 195.907 49.6243C196.054 49.8052 195.637 49.8159 195.574 49.8142C195.572 49.8141 195.583 49.7008 195.485 49.7192C195.317 49.6792 195.574 49.8128 195.574 49.8142C195.534 49.8134 195.412 49.9938 195.421 50.0452C195.427 50.0731 195.569 50.1236 195.569 50.137C195.572 50.454 195.487 50.7316 195.302 50.9674C195.297 50.9708 195.148 50.8941 195.138 50.903C195 51.0254 195.142 51.2088 195.195 51.386C195.248 51.5631 195.165 51.6464 194.869 51.6016C194.858 51.7122 194.68 51.7962 194.574 51.8429C194.468 51.8896 194.76 52.0362 194.762 52.0459C194.852 52.3479 194.624 52.3953 194.496 52.6075C194.434 52.7082 194.38 52.9395 194.36 53.0698C194.344 53.173 194.25 53.1962 194.256 53.3006C194.257 53.3147 194.394 53.3636 194.398 53.3694C194.513 53.5355 194.21 53.3427 194.144 53.3358C193.902 53.3101 193.77 53.3024 193.814 53.4677C193.824 53.5058 194.252 53.7992 194.257 53.8621C194.261 53.9436 194.106 53.8426 194.115 53.9299C194.115 53.9372 194.219 53.9831 194.195 54.0234C194.085 54.2115 193.927 54.399 193.844 54.6086C193.832 54.637 194.012 54.6757 193.997 54.718C193.93 54.9165 193.829 55.1217 193.668 55.2716C193.628 55.3082 193.527 55.2275 193.488 55.2218C193.255 55.1886 193.515 55.4109 193.514 55.4277C193.503 55.8315 193.114 55.9671 193.085 56.3707C193.084 56.3929 193.338 56.6835 193.035 56.6226C193.014 56.6187 192.704 56.5543 192.871 56.6983C192.881 56.7073 193.044 56.7336 192.997 56.7962C192.951 56.8588 192.996 57.0145 192.794 57.0373C192.73 57.0447 192.418 56.9881 192.6 57.1801C192.613 57.1931 193.054 57.5626 192.683 57.4531C192.622 57.435 192.257 57.2583 192.397 57.452C192.425 57.4893 192.524 57.4895 192.55 57.5671C192.592 57.6861 192.443 57.7508 192.56 57.9276C192.581 57.9587 192.797 58.1485 192.579 58.1225C192.545 58.1184 192.431 58.0442 192.402 58.0699C192.267 58.1921 192.276 58.3892 192.12 58.505C192.065 58.5461 191.879 58.4272 191.8 58.46C191.72 58.4928 191.617 58.5844 191.68 58.6857C191.744 58.787 192.091 58.8665 192.075 58.9677C192.008 59.4073 191.646 59.708 191.441 60.0843C191.41 60.1401 191.546 60.1441 191.509 60.23C191.374 60.5472 191.234 61.1366 190.869 61.2983C190.576 61.4279 190.554 61.0867 190.4 61.2172C190.325 61.2804 190.654 61.5356 190.657 61.5603C190.689 61.8036 190.465 61.8606 190.437 62.0539C190.432 62.0939 190.597 62.1276 190.59 62.1608C190.57 62.275 190.454 62.3521 190.421 62.4554C190.407 62.502 190.525 62.546 190.498 62.5823C190.434 62.6699 190.347 62.7334 190.197 62.7787C190.183 62.7829 190.068 62.6602 190.03 62.7292C189.969 62.8412 189.798 62.9365 189.846 63.1193C189.861 63.1738 190.121 63.2944 189.902 63.297C189.856 63.2977 189.553 63.132 189.779 63.3544C189.816 63.3915 190.105 63.7243 189.833 63.6983C189.761 63.6916 189.48 63.6294 189.498 63.6953C189.502 63.7047 189.654 63.7428 189.649 63.7884C189.632 63.9479 189.55 64.0864 189.529 64.2489C189.524 64.2924 189.695 64.302 189.682 64.3647C189.648 64.5373 189.522 64.7151 189.407 64.8468C189.364 64.8953 189.262 64.8016 189.247 64.7997C189.004 64.7684 189.273 64.9383 189.28 64.9678C189.318 65.1493 189.136 65.1911 189.115 65.3325C189.109 65.3714 189.256 65.4094 189.266 65.4218C189.352 65.5475 189.131 65.3822 189.083 65.415C188.949 65.5064 188.895 65.6524 188.854 65.7882C188.84 65.8382 189.022 65.8578 189.007 65.9018C188.921 66.1637 188.787 66.4161 188.588 66.6196C188.551 66.6578 188.442 66.5732 188.409 66.57C188.184 66.5467 188.406 66.7648 188.422 66.7986C188.491 66.9524 188.365 66.9423 188.345 67.0406C188.246 67.522 187.929 68.0271 187.697 68.418C187.396 68.9278 187.09 69.2904 186.887 69.8151C186.873 69.8483 187.051 69.8898 187.042 69.9194C186.916 70.2987 186.69 70.6254 186.571 71.009C186.561 71.0403 186.735 71.0678 186.724 71.1205C186.703 71.229 186.638 71.3491 186.544 71.4255C186.498 71.463 186.395 71.3379 186.352 71.3768C186.251 71.4672 186.184 71.5834 186.156 71.7108C186.144 71.7652 186.336 71.7626 186.308 71.8277C186.124 72.2724 185.955 72.7145 185.549 73.0636C185.521 73.0875 185.189 72.9679 185.221 73.0604C185.308 73.1058 185.412 73.1533 185.506 73.1988C185.266 73.8592 184.867 74.439 184.559 75.07C184.546 75.0966 184.736 75.1275 184.712 75.1794C184.572 75.4801 184.485 75.7946 184.175 76.0263C184.145 76.0494 183.854 75.8974 183.858 76.0083C183.859 76.028 183.836 76.1821 183.885 76.2468C183.893 76.2561 184.043 76.2949 184.027 76.3406C183.932 76.6048 183.779 76.8571 183.577 77.0723C183.545 77.1069 183.416 76.9955 183.392 77.0196C183.218 77.1909 183.228 77.4678 183.003 77.6043C182.852 77.6954 182.618 77.5292 182.333 77.4844C182.293 77.4781 182.25 77.5576 182.101 77.4948C181.727 77.337 181.341 77.1126 180.94 76.9492C180.853 76.9139 180.894 77.0655 180.719 76.9069C180.708 76.8961 180.676 76.7854 180.616 76.734C180.574 76.6984 180.413 76.6548 180.364 76.5988C180.316 76.5429 180.455 76.5694 180.404 76.4902C180.352 76.4106 180.172 76.3533 180.195 76.2519ZM194.098 52.0542C193.922 52.062 194.439 52.3114 194.35 52.1754C194.345 52.1685 194.106 52.0536 194.098 52.0542ZM198.047 43.1892C197.773 43.1793 198.082 43.3994 198.29 43.4134C198.499 43.4273 198.13 43.192 198.047 43.1892ZM198.33 42.1233C198.097 42.1518 198.83 42.5077 198.735 42.3199C198.73 42.3091 198.343 42.1216 198.33 42.1233ZM182.411 77.1249C182.403 77.1228 182.369 77.1787 182.376 77.1832C182.527 77.2905 182.595 77.1786 182.411 77.1249ZM198.595 41.0582C198.479 41.0472 198.549 41.2002 198.693 41.2139C198.809 41.2249 198.739 41.0718 198.595 41.0582ZM191.802 55.6054C191.794 55.603 191.767 55.6421 191.812 55.6613C191.955 55.7232 191.942 55.646 191.802 55.6054ZM199.348 39.3861C199.208 39.6199 198.528 39.4898 198.719 39.2529C198.754 39.21 198.867 39.4468 198.95 39.4101C199.102 39.3429 198.752 39.0922 199.011 39.0707C199.058 39.067 199.358 39.3734 199.349 39.387C199.349 39.3867 199.349 39.3864 199.348 39.3861ZM193.451 51.8096C193.443 51.8079 193.41 51.8634 193.416 51.868C193.568 51.9755 193.635 51.8636 193.451 51.8096ZM190.352 57.9259C190.335 57.9225 190.26 58.052 190.271 58.0627C190.51 58.2574 190.664 57.9958 190.352 57.9259ZM194.869 47.6915C194.732 47.5514 194.747 47.466 194.98 47.5108C194.94 47.5692 194.909 47.6324 194.869 47.6915Z" fill="#FFEA7E"/>
</svg>
